<svg width="128" height="128" viewBox="0 0 128 128" fill="none" xmlns="http://www.w3.org/2000/svg">
<path d="M59.2603 27.1902L80.4831 25.4729C76.1127 10.7835 64.761 1.87671 46.9873 1.87671H46.9865C27.3619 1.87671 11.4528 16.8927 11.4528 35.4156V41.4593C11.4528 50.9566 14.4803 60.2139 20.1086 68.0429L25.4146 65.1738C36.6307 59.1091 44.8651 48.7055 48.1918 36.3965C49.5691 31.2996 53.9978 27.6161 59.2603 27.1902Z" fill="#616161"/>
<path d="M40.9448 34.4377C38.1678 44.7122 31.2058 53.5081 21.8436 58.5704L16.2261 61.6081C17.3368 63.8366 18.6322 65.9893 20.1083 68.0426L25.4143 65.1735C36.6304 59.1088 44.8646 48.7052 48.1915 36.3962C49.569 31.2994 53.9978 27.6158 59.2602 27.1899L80.483 25.4724C79.7034 22.8518 78.6974 20.4191 77.4764 18.1846L58.6547 19.7077C50.2597 20.3873 43.1423 26.3066 40.9448 34.4377Z" fill="#424242"/>
<path d="M91.1669 53.9135L82.5192 40.6615C82.5192 35.1071 81.8343 30.014 80.4833 25.4729L59.2605 27.1902C53.998 27.6161 49.5693 31.2996 48.1918 36.3965C44.8651 48.7055 36.6307 59.1091 25.4146 65.1738L20.1086 68.0429C20.578 68.696 21.0634 69.3403 21.5689 69.9729L30.4739 81.1156V88.4545L66.217 102.217V84.4259C72.1173 85.2391 77.6148 81.7785 79.6216 76.4437L76.2338 75.4903C74.0836 74.8853 72.5197 72.9556 72.5077 70.7218C72.4907 67.5129 75.4821 65.14 78.5994 65.8815L80.9252 66.4345L81.3831 60.8344L88.5646 59.218C90.9267 58.6852 92.1904 56.1054 91.1669 53.9135Z" fill="#FFE4C2"/>
<path d="M28.8792 79.1204L30.4736 81.1157V88.4545L66.217 102.217V93.0461L28.8792 79.1204Z" fill="#F2D1A5"/>
<path d="M23.4636 102.217L24.8594 92.1365C25.2988 88.9636 28.5642 87.0146 31.5654 88.1339L72.0072 103.218L69.7552 117.981L23.4636 102.217Z" fill="#E4E8ED"/>
<path d="M71.0719 109.349L24.5028 94.7102L23.4636 102.217L69.7552 117.981L71.0719 109.349Z" fill="#CAD8EB"/>
<path d="M75.5104 127.99V127.49C73.4893 120.338 67.898 114.75 60.7454 112.732L23.4636 102.217L13.6676 119.564C12.2158 122.135 11.4528 125.037 11.4528 127.99H75.5104Z" fill="#C4E5F9"/>
<path d="M13.1856 120.483C12.0479 122.817 11.4528 125.384 11.4528 127.99H75.5104V127.489C74.7845 124.921 73.5959 122.556 72.042 120.483H13.1856Z" fill="#9EB6F4"/>
<path d="M31.4708 111.1H35.2241V114.853H31.4708V111.1Z" fill="white"/>
<path d="M26.7165 20.7686H30.4699V24.5219H26.7165V20.7686Z" fill="white"/>
<path d="M14.1342 49.7267C13.6002 47.0075 13.3295 44.2257 13.3295 41.459V35.4156C13.3295 34.2715 13.396 33.1418 13.5224 32.0288H19.46V28.2754H14.1925C14.5078 26.993 14.9067 25.7401 15.3826 24.522H22.9631V20.7687H17.1547C22.7835 10.6641 34.0423 3.75337 46.9867 3.75337C56.46 3.75337 64.1521 6.3432 69.849 11.451L72.3548 8.65653C65.948 2.91237 57.4131 0 46.9865 0C26.3582 0 9.57611 15.8875 9.57611 35.4156V41.459C9.57611 44.4679 9.87062 47.4929 10.4511 50.4498L14.1342 49.7267Z" fill="black"/>
<path d="M93.4014 55.5157C93.4014 54.7503 93.2486 54.0053 92.9468 53.2989C92.8952 53.1781 92.8299 53.0627 92.7581 52.9526L84.3943 40.1001C84.2965 28.293 81.1036 18.4144 75.1455 11.5042L72.3027 13.9551C74.6794 16.7113 76.5673 20.0196 77.9423 23.7962L59.1091 25.3201C53.1398 25.803 48.0692 29.9722 46.432 35.7199L46.3797 35.9081C46.174 36.6695 45.945 37.4354 45.6991 38.1839L49.2653 39.3549C49.512 38.6032 49.7432 37.8356 49.9531 37.0704L50.0032 36.8867C51.1705 32.5671 54.9514 29.4222 59.4116 29.0614L79.0618 27.4715L79.054 27.3757C80.1045 31.3955 80.6435 35.8505 80.6435 40.6623V41.2203L89.5099 54.8101C89.6015 55.0378 89.6481 55.275 89.6481 55.5164C89.6481 56.4193 89.0328 57.1887 88.152 57.3871L79.6248 59.3086L79.2322 64.1042L79.0335 64.0571C78.5106 63.9328 77.9758 63.8697 77.4444 63.8697C73.6109 63.8697 70.5069 67.0578 70.6347 70.9263C70.7338 73.9272 72.8467 76.488 75.7368 77.3013L76.9472 77.6418C75.0344 80.7121 71.6246 82.6676 67.9318 82.6676C67.3203 82.6676 66.7004 82.6138 66.0904 82.5077L47.9353 79.3499L47.2923 83.0477L64.3401 86.0128V98.3557L57.6616 95.8647L56.3499 99.3816L69.9221 104.444L68.4077 114.372C66.2603 112.838 63.8466 111.658 61.2553 110.927L25.5472 100.855L26.7188 92.3948C26.9322 90.8544 28.2632 89.6929 29.8148 89.6929C30.1854 89.6929 30.554 89.7602 30.91 89.8931L52.8332 98.0699L54.1449 94.553L32.3508 86.4245V80.4584L22.9214 68.659C22.9216 68.6577 22.9216 68.6575 22.9219 68.6562L26.3079 66.8251C35.9743 61.5979 43.6425 53.1403 47.8998 43.0102L44.4397 41.5559C40.5127 50.9 33.4393 58.7016 24.5225 63.5234L20.6944 65.5935C18.1453 61.7668 16.2248 57.6216 14.9735 53.2234L11.3632 54.2503C13.1095 60.3893 16.0499 66.0734 20.1026 71.1445L28.597 81.7735V86.0491C25.7246 86.5711 23.4125 88.9032 23.0004 91.8791L21.6537 101.605L12.0333 118.641C10.4256 121.488 9.57611 124.721 9.57611 127.99H13.3295C13.3295 126.06 13.6998 124.147 14.4082 122.36H23.7138V118.607H16.3632L18.4829 114.853H27.7174V111.1H20.6025L24.3729 104.423L60.2359 114.538C66.6321 116.342 71.744 121.394 73.6337 127.756V127.99H73.7015C73.7025 127.993 73.7035 127.997 73.7042 128L77.387 127.99V127.229L77.3165 126.979C76.2778 123.304 74.3386 119.987 71.7602 117.282L74.0926 101.992L68.0932 99.7549V86.4169C73.9755 86.3496 79.3005 82.6258 81.3774 77.1046L82.0973 75.1911L76.7067 73.6743C75.4456 73.3194 74.4889 72.2342 74.3929 70.9275C74.2602 69.1287 75.6805 67.6223 77.4444 67.6223C77.6838 67.6223 77.9265 67.6511 78.1653 67.7079L82.616 68.7663L83.1407 62.3633L88.9772 61.0482C91.5821 60.4609 93.4014 58.1858 93.4014 55.5157Z" fill="black"/>
<path d="M88.9848 66.3677L92.7006 65.8385L93.2299 69.5543L89.514 70.0835L88.9848 66.3677Z" fill="black"/>
<path d="M96.4169 65.3091L106.502 63.8727L107.031 67.5886L96.9462 69.0249L96.4169 65.3091Z" fill="black"/>
<path d="M87.973 77.74L89.099 74.1593L106.615 79.6674L105.489 83.2481L87.973 77.74Z" fill="black"/>
<path d="M89.5236 89.1506L92.0646 86.3882L99.052 92.8154L96.511 95.5779L89.5236 89.1506Z" fill="black"/>
<path d="M83.9994 84.071L86.5404 81.3086L89.3029 83.8496L86.7619 86.6121L83.9994 84.071Z" fill="black"/>
<path d="M111.918 70.9387H115.671V74.6921H111.918V70.9387Z" fill="black"/>
<path d="M104.286 88.5796H108.04V92.333H104.286V88.5796Z" fill="black"/>
<path d="M109.416 98.7136H113.169V102.467H109.416V98.7136Z" fill="black"/>
<path d="M114.671 83.45H118.424V87.2033H114.671V83.45Z" fill="black"/>
<path d="M84.6436 93.459H88.3969V97.2124H84.6436V93.459Z" fill="black"/>
<path d="M99.657 100.966H103.41V104.719H99.657V100.966Z" fill="black"/>
<path d="M67.7038 48.6092L76.9406 40.9118L67.7038 33.2144L65.3007 36.0979L71.0773 40.9118L65.3007 45.7256L67.7038 48.6092Z" fill="black"/>
</svg>
