<svg width="512" height="512" fill="none" xmlns="http://www.w3.org/2000/svg"><path d="M466.78 401.32C420.59 468.19 343.41 512 256 512 114.62 512 0 397.38 0 256c0-46.22 12.25-89.57 33.68-127C77.8 51.93 160.84 0 256 0c31.99 0 62.62 5.87 90.85 16.6l19.78 31.94a668.409 668.409 0 01100.15 352.78z" fill="#464F6E"/><path d="M466.78 401.32C420.59 468.19 343.41 512 256 512 114.62 512 0 397.38 0 256c0-46.22 12.25-89.57 33.68-127C77.8 206.07 160.84 258 256 258c68.2 0 130.17-26.67 176.05-70.16a668.13 668.13 0 0134.73 213.48z" fill="#303C5A"/><path d="M512 256c0 53.97-16.71 104.04-45.22 145.32-3.72-.56-7.49-.78-11.29-.59-21.43 1.04-41.18 14.48-62.61 13.56-16.54-.71-32.36-10.74-40.06-25.39-5.91-11.26-6.81-24.8-3.03-36.88 2.4-7.65 7.42-19.17 4.34-27.34-3.28-8.7-29.9-21.75-34.25-27.72-4.34-5.98.55-15.77 5.44-27.18 4.9-11.41 29.36-12.5 29.36-12.5s-26.09-5.43-34.8-13.59c-8.69-8.15-10.87-21.75-2.72-26.63 3.52-2.11 8.44-8.35 12.91-14.77 5.82-8.37 3.15-19.91-5.68-25-3.73-2.14-7.47-4.68-10.48-7.53-13.16-12.44-4.76-30.89 6.98-40.75 9.86-8.27 22.16-14.22 29.13-25.04 12.98-20.15 2.15-46.25-1.71-69.89-.95-5.82-1.43-11.67-1.46-17.48C402.6 37.76 449.03 77.84 478.32 129 499.75 166.43 512 209.78 512 256z" fill="#FFC0A4"/><path d="M332.293 170.34c3.735-5.665 30.215 2.361 26.91 12.275-3.305 9.914-30.646-6.61-26.91-12.275zM354.677 257.28s-26.091-5.429-34.795-13.589c-8.693-8.149-10.869-21.749-2.72-26.635.001 0 26.763 10.752 37.515 40.224zM354.677 257.28c-4.821 23.093-11.115 34.219-34.795 39.68-4.341-5.984.544-15.765 5.44-27.179 4.897-11.413 29.355-12.501 29.355-12.501z" fill="#FFA87A"/><path d="M284.748 232.874l-6.823-6.8-17.702 2.563-12.673-12.627-17.707 2.562-10.726-10.685a5.5 5.5 0 117.763-7.793l6.83 6.805 17.707-2.562 12.673 12.625 17.704-2.563 10.719 10.683a5.5 5.5 0 01-7.765 7.792zM236.226 312.697l-14.985-2.168a5.5 5.5 0 111.575-10.886l9.543 1.38 12.675-12.627 17.705 2.563 12.672-12.626 14.978 2.17a5.5 5.5 0 01-1.578 10.886l-9.534-1.382-12.672 12.626-17.705-2.563-12.674 12.627zM239.581 267.005l-19.301-8-19.304 8-16.329-6.767a5.5 5.5 0 114.212-10.161l12.117 5.022 19.304-8 19.301 8 19.3-8 16.325 6.767a5.5 5.5 0 01-4.212 10.161l-12.113-5.021-19.3 7.999z" fill="#fff"/><path d="M224.249 387.724a7.81 7.81 0 01-7.816 7.816h-35.105l24.833 24.833c3.037 3.037 3.037 7.995 0 11.054a7.846 7.846 0 01-5.538 2.278 7.794 7.794 0 01-5.516-2.278l-24.833-24.833v35.105c0 4.154-3.26 7.571-7.37 7.794-.156.022-.29.022-.447.022-4.31 0-7.816-3.506-7.816-7.816v-35.105l-24.811 24.833a7.844 7.844 0 01-5.538 2.278 7.794 7.794 0 01-5.516-2.278c-3.059-3.059-3.059-8.017 0-11.054l24.811-24.833h-35.083a7.796 7.796 0 01-7.816-7.816 7.81 7.81 0 017.816-7.816h35.083l-24.811-24.811a7.805 7.805 0 010-11.054 7.805 7.805 0 0111.054 0l24.811 24.811V333.77a7.81 7.81 0 017.816-7.816c.156 0 .29 0 .447.022a7.796 7.796 0 017.37 7.794v35.083l24.833-24.811c3.037-3.059 7.995-3.059 11.054 0a7.845 7.845 0 010 11.054l-24.833 24.811h35.105c4.31.001 7.816 3.507 7.816 7.817z" fill="#81F700"/><path d="M224.249 387.724a7.81 7.81 0 01-7.816 7.816h-35.105l24.833 24.833c3.037 3.037 3.037 7.995 0 11.054a7.846 7.846 0 01-5.538 2.278 7.794 7.794 0 01-5.516-2.278l-24.833-24.833v35.105c0 4.154-3.26 7.571-7.37 7.794V325.977a7.796 7.796 0 017.37 7.794v35.083l24.833-24.811c3.037-3.059 7.995-3.059 11.054 0a7.845 7.845 0 010 11.054l-24.833 24.811h35.105c4.31 0 7.816 3.506 7.816 7.816z" fill="#00CC7F"/><path d="M200.488 387.724c0 20.679-16.771 37.45-37.45 37.45h-.134c-20.612-.067-37.316-16.816-37.316-37.45 0-20.634 16.704-37.361 37.316-37.428h.134c20.679 0 37.45 16.748 37.45 37.428z" fill="#00CC7F"/><path d="M200.488 387.724c0 20.679-16.771 37.45-37.45 37.45h-.134v-74.878h.134c20.679 0 37.45 16.748 37.45 37.428z" fill="#029291"/><path d="M181.819 387.724c0 10.384-8.419 18.781-18.781 18.781h-.134c-10.295-.067-18.647-8.441-18.647-18.781 0-10.318 8.352-18.714 18.647-18.781h.134c10.362 0 18.781 8.419 18.781 18.781z" fill="#81F700"/><path d="M181.819 387.724c0 10.384-8.419 18.781-18.781 18.781h-.134v-37.562h.134c10.362 0 18.781 8.419 18.781 18.781z" fill="#00CC7F"/><path d="M111.77 276.764a5.586 5.586 0 01-5.59 5.59H81.074l17.76 17.76c2.172 2.172 2.172 5.717 0 7.906a5.613 5.613 0 01-7.906 0l-17.76-17.76v25.106a5.586 5.586 0 01-5.27 5.574c-.112.016-.207.016-.319.016a5.596 5.596 0 01-5.59-5.59V290.26l-17.744 17.76a5.611 5.611 0 01-3.96 1.629 5.576 5.576 0 01-3.946-1.629c-2.188-2.188-2.188-5.733 0-7.906l17.744-17.76h-25.09a5.576 5.576 0 01-5.59-5.59 5.586 5.586 0 015.59-5.59h25.09L36.34 253.43a5.582 5.582 0 010-7.906 5.582 5.582 0 017.906 0l17.744 17.744v-25.09a5.587 5.587 0 015.59-5.59c.112 0 .208 0 .32.016a5.575 5.575 0 015.27 5.574v25.09l17.76-17.744c2.171-2.188 5.716-2.188 7.905 0a5.61 5.61 0 010 7.906l-17.76 17.744h25.106a5.596 5.596 0 015.59 5.59z" fill="#81F700"/><path d="M111.77 276.764a5.586 5.586 0 01-5.59 5.59H81.074l17.76 17.76c2.172 2.172 2.172 5.717 0 7.906a5.613 5.613 0 01-7.906 0l-17.76-17.76v25.106a5.586 5.586 0 01-5.27 5.574v-88.335a5.575 5.575 0 015.27 5.574v25.09l17.76-17.744c2.172-2.188 5.717-2.188 7.906 0a5.611 5.611 0 010 7.906l-17.76 17.744h25.106a5.595 5.595 0 015.59 5.589z" fill="#00CC7F"/><path d="M94.777 276.764c0 14.789-11.994 26.783-26.783 26.783h-.096c-14.74-.048-26.687-12.026-26.687-26.783 0-14.757 11.946-26.719 26.687-26.767h.096c14.79 0 26.783 11.978 26.783 26.767z" fill="#00CC7F"/><path d="M94.777 276.764c0 14.789-11.994 26.783-26.783 26.783h-.096v-53.55h.096c14.79 0 26.783 11.978 26.783 26.767z" fill="#029291"/><path d="M81.425 276.764c0 7.426-6.021 13.431-13.431 13.431h-.096c-7.362-.048-13.335-6.037-13.335-13.431 0-7.379 5.973-13.384 13.335-13.432h.096c7.41.001 13.431 6.022 13.431 13.432z" fill="#81F700"/><path d="M81.425 276.764c0 7.426-6.02 13.431-13.43 13.431h-.097v-26.863h.096c7.41.001 13.431 6.022 13.431 13.432z" fill="#00CC7F"/><path d="M341.347 432.57a4.966 4.966 0 01-4.969 4.969h-22.32l15.789 15.788c1.931 1.931 1.931 5.083 0 7.028a4.986 4.986 0 01-3.521 1.448 4.957 4.957 0 01-3.507-1.448l-15.789-15.788v22.32a4.966 4.966 0 01-4.685 4.955c-.099.014-.184.014-.284.014a4.975 4.975 0 01-4.969-4.969v-22.32l-15.774 15.788a4.986 4.986 0 01-3.521 1.448 4.957 4.957 0 01-3.507-1.448c-1.945-1.945-1.945-5.097 0-7.028l15.774-15.788h-22.305a4.956 4.956 0 01-4.969-4.969 4.966 4.966 0 014.969-4.969h22.305l-15.774-15.775a4.962 4.962 0 010-7.028 4.962 4.962 0 017.028 0l15.774 15.775v-22.306a4.966 4.966 0 014.969-4.969c.099 0 .185 0 .284.014a4.955 4.955 0 014.685 4.955v22.306l15.789-15.775c1.931-1.945 5.083-1.945 7.028 0a4.987 4.987 0 010 7.028l-15.789 15.775h22.32a4.975 4.975 0 014.969 4.969z" fill="#81F700"/><path d="M341.347 432.57a4.966 4.966 0 01-4.969 4.969h-22.32l15.789 15.788c1.931 1.931 1.931 5.083 0 7.028a4.986 4.986 0 01-3.521 1.448 4.957 4.957 0 01-3.507-1.448l-15.789-15.788v22.32a4.966 4.966 0 01-4.685 4.955v-78.531a4.955 4.955 0 014.685 4.955v22.306l15.789-15.775c1.931-1.945 5.083-1.945 7.028 0a4.987 4.987 0 010 7.028L314.058 427.6h22.32a4.976 4.976 0 014.969 4.97z" fill="#00CC7F"/><path d="M326.24 432.57c0 13.148-10.663 23.811-23.811 23.811h-.085c-13.105-.043-23.725-10.691-23.725-23.811s10.62-23.754 23.725-23.796h.085c13.148 0 23.811 10.648 23.811 23.796z" fill="#00CC7F"/><path d="M326.24 432.57c0 13.148-10.663 23.811-23.811 23.811h-.085v-47.607h.085c13.148 0 23.811 10.648 23.811 23.796z" fill="#029291"/><path d="M314.37 432.57c0 6.602-5.353 11.941-11.941 11.941h-.085c-6.545-.043-11.855-5.367-11.855-11.941 0-6.56 5.31-11.898 11.855-11.941h.085c6.588 0 11.941 5.353 11.941 11.941z" fill="#81F700"/><path d="M314.37 432.57c0 6.602-5.353 11.941-11.941 11.941h-.085V420.63h.085c6.588-.001 11.941 5.352 11.941 11.94z" fill="#00CC7F"/><path d="M201.994 141.292a5.586 5.586 0 01-5.59 5.59h-25.106l17.76 17.76c2.172 2.172 2.172 5.717 0 7.906a5.611 5.611 0 01-3.961 1.629 5.575 5.575 0 01-3.945-1.629l-17.76-17.76v25.106a5.586 5.586 0 01-5.271 5.574c-.112.016-.207.016-.319.016a5.596 5.596 0 01-5.59-5.59v-25.106l-17.744 17.76a5.611 5.611 0 01-3.961 1.629 5.576 5.576 0 01-3.945-1.629c-2.188-2.188-2.188-5.734 0-7.906l17.744-17.76h-25.09a5.576 5.576 0 01-5.59-5.59 5.586 5.586 0 015.59-5.59h25.09l-17.744-17.744a5.582 5.582 0 010-7.906 5.582 5.582 0 017.906 0l17.744 17.744v-25.09a5.586 5.586 0 015.59-5.59c.112 0 .208 0 .319.016a5.575 5.575 0 015.271 5.574v25.09l17.76-17.744c2.172-2.188 5.717-2.188 7.906 0a5.61 5.61 0 010 7.906l-17.76 17.744h25.106a5.597 5.597 0 015.59 5.59z" fill="#81F700"/><path d="M201.994 141.292a5.586 5.586 0 01-5.59 5.59h-25.106l17.76 17.76c2.172 2.172 2.172 5.717 0 7.906a5.611 5.611 0 01-3.961 1.629 5.575 5.575 0 01-3.945-1.629l-17.76-17.76v25.106a5.586 5.586 0 01-5.271 5.574V97.133a5.575 5.575 0 015.271 5.574v25.09l17.76-17.744c2.172-2.188 5.717-2.188 7.906 0a5.61 5.61 0 010 7.906l-17.76 17.744h25.106a5.595 5.595 0 015.59 5.589z" fill="#00CC7F"/><path d="M185.001 141.292c0 14.789-11.994 26.783-26.783 26.783h-.096c-14.741-.048-26.687-12.026-26.687-26.783 0-14.757 11.946-26.719 26.687-26.767h.096c14.789 0 26.783 11.979 26.783 26.767z" fill="#00CC7F"/><path d="M185.001 141.292c0 14.789-11.994 26.783-26.783 26.783h-.096v-53.55h.096c14.789 0 26.783 11.979 26.783 26.767z" fill="#029291"/><path d="M171.65 141.292c0 7.426-6.021 13.431-13.431 13.431h-.096c-7.362-.048-13.335-6.037-13.335-13.431 0-7.379 5.973-13.384 13.335-13.431h.096c7.41 0 13.431 6.021 13.431 13.431z" fill="#81F700"/><path d="M171.65 141.292c0 7.426-6.021 13.431-13.431 13.431h-.096V127.86h.096c7.41.001 13.431 6.022 13.431 13.432z" fill="#00CC7F"/></svg>