<svg width="150" height="150" viewBox="0 0 150 150" fill="none" xmlns="http://www.w3.org/2000/svg">
<path d="M26.6602 105.762V132.129H123.34V105.762H26.6602Z" fill="#FF9F00"/>
<path d="M75 105.762H123.34V132.129H75V105.762Z" fill="#FF7816"/>
<path d="M123.779 67.4412L116.66 81.3274H33.3401L26.2207 67.4412C36.6795 52.9392 54.8733 44.2383 75 44.2383C95.1267 44.2383 113.321 52.9392 123.779 67.4412Z" fill="#FF4B00"/>
<path d="M123.779 67.4412L116.66 81.3274H75V44.2383C95.1267 44.2383 113.321 52.9392 123.779 67.4412Z" fill="#CC1E0D"/>
<path d="M139.776 58.6521L123.34 114.551H26.6601L10.2241 58.6521L21.2986 54.4338C26.3088 64.0136 35.8886 69.6384 43.7107 70.6054H48.2814C58.3889 69.0239 65.9465 53.5549 69.0239 38.7886H80.9772C84.0534 53.5549 91.6122 69.0239 101.718 70.6054H106.289C114.111 69.6384 123.691 64.0136 128.701 54.4338L139.776 58.6521Z" fill="#FDBF00"/>
<path d="M139.776 58.6521L123.34 114.551H75V38.7886H80.9761C84.0534 53.5549 91.6111 69.0239 101.719 70.6054H106.289C114.111 69.6384 123.691 64.0136 128.701 54.4338L139.776 58.6521Z" fill="#FF9F00"/>
<path d="M13.4766 61.8164C6.20728 61.8164 0 55.9021 0 48.6328C0 41.3635 6.20728 35.4492 13.4766 35.4492C20.7458 35.4492 26.6602 41.3635 26.6602 48.6328C26.6602 55.9021 20.7458 61.8164 13.4766 61.8164Z" fill="#FF9F00"/>
<path d="M136.523 61.8164C129.254 61.8164 123.34 55.9021 123.34 48.6328C123.34 41.3635 129.254 35.4492 136.523 35.4492C143.793 35.4492 150 41.3635 150 48.6328C150 55.9021 143.793 61.8164 136.523 61.8164Z" fill="#FF7816"/>
<path d="M75 17.8711C67.7044 17.8711 61.8164 23.7591 61.8164 31.0547C61.8164 38.3492 67.7044 44.2383 75 44.2383C82.2956 44.2383 88.1836 38.3492 88.1836 31.0547C88.1836 23.7591 82.2956 17.8711 75 17.8711Z" fill="#FF9F00"/>
<path d="M75 68.7595L59.9705 83.789L75 98.8186L90.0295 83.789L75 68.7595Z" fill="#FF4B00"/>
<path d="M101.367 86.3628L107.581 92.5769L101.367 98.7911L95.1531 92.5769L101.367 86.3628Z" fill="#CC1E0D"/>
<path d="M48.6328 86.3628L54.847 92.5769L48.6328 98.7911L42.4187 92.5769L48.6328 86.3628Z" fill="#FF4B00"/>
<path d="M75 44.2383V17.8711C82.2956 17.8711 88.1836 23.7591 88.1836 31.0547C88.1836 38.3492 82.2956 44.2383 75 44.2383Z" fill="#FF7816"/>
<path d="M90.0295 83.789L75 98.8186V68.7595L90.0295 83.789Z" fill="#CC1E0D"/>
</svg>
