<svg width="512" height="512" fill="none" xmlns="http://www.w3.org/2000/svg"><path d="M488.113 219.645a152.23 152.23 0 00-3.555 133.779C446.115 442.027 357.863 504 255.14 504c-99.277 0-185.04-57.891-225.386-141.758a224.52 224.52 0 00-7.851-124.15L10 204.83a248.324 248.324 0 0128.054-74.853C81.134 54.713 162.22 4 255.14 4c92.919 0 174.004 50.713 217.086 125.977A248.294 248.294 0 01499 198.824l-10.887 20.821z" fill="#464F6E"/><path fill-rule="evenodd" clip-rule="evenodd" d="M434.7 427.927c44.105-45.082 71.3-106.821 71.3-174.911 0-45.134-12.6-86.466-33.5-123.016l-.137.24-.137-.24a251.163 251.163 0 01-54.922 66.228c-14.74 12.404-30.991 23.13-48.537 32.004a247.234 247.234 0 01-45.711 17.704c-21.242 5.888-43.615 9.033-66.73 9.033-22.968 0-45.204-3.106-66.329-8.926h-.01a246.557 246.557 0 01-46.092-17.811c-20.898-10.565-40.597-23.32-58.12-38.391A251.055 251.055 0 0138.054 130a248.549 248.549 0 00-21.324 48.645c-8.317 25.592-12.724 53.168-11.54 80.718 0 41.703 10.656 79.031 29.095 111.846a249.358 249.358 0 0016.404 26.675C95.938 462.069 170.647 504 255.14 504c70.462 0 134.121-29.161 179.56-76.073z" fill="#303C5A"/><path d="M184.239 369.383a4.526 4.526 0 00-4.47-3.817h-42.965c-12.17 0-23.877 3.652-33.855 10.561a4.528 4.528 0 00-1.949 3.722v9.625c0 2.5 2.026 4.526 4.526 4.526h74.587a4.53 4.53 0 004.526-4.527l-.002-15.081c0-1.66-.134-3.345-.398-5.009zM408.051 376.128c-9.978-6.91-21.685-10.562-33.855-10.562h-42.964a4.527 4.527 0 00-4.47 3.818 32.045 32.045 0 00-.398 5.008l-.002 15.081a4.53 4.53 0 004.526 4.527h74.586c2.5 0 4.526-2.026 4.526-4.526v-9.625a4.525 4.525 0 00-1.949-3.721z" fill="#FFCCBC"/><path d="M265.089 353.294a45.093 45.093 0 01-9.589-27.87 45.093 45.093 0 01-9.589 27.87c-3.689 4.718-5.592 10.589-5.594 16.579L240.316 394h30.368l-.002-24.128c0-5.989-1.904-11.86-5.593-16.578z" fill="#FFAB91"/><path d="M408.064 376.137c-9.412-6.521-20.363-10.14-31.791-10.533l.101.05c5.854 2.893 9.486 8.938 9.486 15.468v1.972a4.87 4.87 0 01-4.87 4.87h-54.628v1.394c0 .632.095 1.267.342 1.849a4.535 4.535 0 004.184 2.792h74.586c2.5 0 4.526-2.026 4.526-4.526v-9.625c0-1.478-.72-2.869-1.936-3.711z" fill="#FF8A65"/><path d="M259.423 243.121c.148-3.362 1.721-3.817 3.621-6.337.644-.854 4.19.906 3.621 0-3.117-4.967-4.156 39.225-3.996 32.892.407-16.132-1.277 8.942 14.86 8.751 5.438-.065-6.272-21.416-1.811-19.011 1.353.729 12.137 14.61 13.277 13.579 4.056-3.664 20.266 2.299 26.253 2.716 9.937.693 19.041-30.109 20.218-20.218.253 2.125 7.35-57.787 7.002-55.813a3.757 3.757 0 001.592 3.778c.447.303.886.618 1.321.937l1.546-20.987C350.84 130.269 308.782 85 255.5 85c-53.282 0-95.339 45.269-91.426 98.407l.186 2.52c6.284-5.471 1.338 73.538 10.369 73.489 15.337-.082-5.292 5.572 0 19.011.358.91 45.599 62.932 52.506-18.105 1.33-.134 7.347 8.148 8.77 8.449 5.852 1.237 2.274-60.943 2.682-54.976a13.45 13.45 0 01-2.682 9.062c-.539.715-.558 1.686-.082 2.444a25.74 25.74 0 013.602 9.508 11.252 11.252 0 014.754-1.057c6.253 0 11.322 5.069 11.322 11.322-.001-3.433 1.51.123 3.922-1.953z" fill="#FFCCBC"/><path d="M210.715 280.697v-50.749c0-5.977 4.845-10.822 10.821-10.822s10.821 4.845 10.821 10.822V280.697h1v-35.623c0-5.977 4.845-10.822 10.822-10.822 5.976 0 10.821 4.845 10.821 10.822v80.35a44.594 44.594 0 01-9.482 27.561c-3.762 4.812-5.699 10.793-5.7 16.887l-.002 23.628h-59.204l-.001-23.634a27.754 27.754 0 00-5.801-17.014 44.908 44.908 0 01-4.057-6.235l-.004-.007-.003-.006-32.063-55.535c-2.989-5.176-1.215-11.794 3.96-14.782 5.177-2.989 11.795-1.215 14.783 3.96l5.927 10.267c.569.985 2.076.582 2.076-.557v-60.009c0-5.977 4.845-10.822 10.822-10.822 5.976 0 10.821 4.845 10.821 10.822v50.749h1V216.43c0-5.977 4.845-10.822 10.821-10.822 5.977 0 10.822 4.845 10.822 10.822v64.267h1zM330.389 369.866l-.001 23.634h-59.203l-.002-23.628c-.001-6.094-1.938-12.075-5.7-16.887A44.589 44.589 0 01256 325.424v-80.35c0-5.977 4.845-10.822 10.822-10.822 5.976 0 10.821 4.845 10.821 10.822v35.623h1V229.948c0-5.977 4.845-10.822 10.821-10.822 5.977 0 10.822 4.845 10.822 10.822v50.749h1V216.43c0-5.977 4.845-10.822 10.821-10.822s10.821 4.845 10.821 10.822v64.267h1v-50.749c0-5.977 4.845-10.822 10.822-10.822 5.976 0 10.821 4.845 10.821 10.822v60.009c0 1.139 1.507 1.542 2.076.557l5.927-10.267c2.988-5.175 9.607-6.949 14.783-3.96 5.176 2.988 6.949 9.606 3.961 14.782l-32.063 55.535-.004.006-.003.007a45 45 0 01-4.057 6.235 27.755 27.755 0 00-5.802 17.014z" fill="#FFCCBC" stroke="#000"/><path d="M310.786 178.245c2.652 3.016 27.226 19.993 31.847 20.316-2.641-7.946-7.137-16.328-5.96-6.437.253 2.125 6.142 5.582 5.794 7.556a3.759 3.759 0 001.592 3.778c.447.303.886.618 1.322.937l1.545-20.987c2.818-38.256-18.192-72.431-50.062-88.574a84.622 84.622 0 012.431 20.16c0 13.256-3.059 25.796-8.498 36.963a84.877 84.877 0 0019.989 26.288z" fill="#5D4037"/><path d="M296.871 94.837C284.471 88.554 270.426 85 255.5 85c-53.282 0-95.34 45.269-91.426 98.407l.185 2.52c3.43 14.043 5.348 15.137 12.784 19.475 14.485 8.449 6.035-3.228 44.214-6.127 43.651-3.314 78.037-39.782 78.037-84.281 0-6.948-.842-13.697-2.423-20.157z" fill="#8D6E63"/><path d="M244.169 233.752c-6.055.006-10.983 4.768-11.283 10.748-.01.192-.029.38-.029.574v-15.126c0-5.466-3.873-10.026-9.024-11.087v58.507c0 2.404 1.803 4.515 4.201 4.683l.114.007c2.615.119 4.709 2.188 4.709 4.805v26.491a45.093 45.093 0 01-9.557 27.829c-3.695 4.736-5.626 10.611-5.626 16.618 0 8.327-6.75 15.077-15.077 15.077H180.11l.002 21.123h60.204l.002-24.128c0-6.008 1.933-11.884 5.627-16.623a45.087 45.087 0 009.555-27.826v-80.066c0-6.234-5.097-11.611-11.331-11.606z" fill="#FF8A65"/><path d="M205.685 282.062c2.5 0 4.527-2.026 4.527-4.526V216.38c-.024-5.454-3.902-9.998-9.053-11.044v72.2c0 2.5 2.027 4.526 4.526 4.526zM187.572 277.536l-.001-47.588c0-5.475-3.887-10.043-9.052-11.093v58.681a4.527 4.527 0 009.053 0zM368.608 275.853c-5.415-3.126-12.339-1.271-15.465 4.144l-5.928 10.267c-.313.543-1.143.321-1.143-.306v-60.016c-.003-5.474-3.889-10.037-9.053-11.088v66.305a84.961 84.961 0 01-11.382 42.479l-9.089 15.742a45.231 45.231 0 01-4.138 6.351c-3.7 4.756-5.661 10.635-5.661 16.661v.312c0 8.158-6.613 14.77-14.77 14.77h-21.296l.002 12.526h60.203l.002-24.134c.001-6.027 1.963-11.907 5.663-16.663a45.442 45.442 0 004.137-6.349l32.063-55.535c3.125-5.415 1.27-12.339-4.145-15.466zM278.094 277.536v-33.44a11.319 11.319 0 00-9.053-10.123v43.563a4.527 4.527 0 009.053 0zM296.231 282.062c2.5 0 4.527-2.027 4.527-4.527v-48.154a11.315 11.315 0 00-9.053-10.531v58.685c0 2.5 2.027 4.527 4.526 4.527z" fill="#FF8A65"/><path d="M318.871 282.062c2.5 0 4.526-2.027 4.526-4.526v-61.735a11.316 11.316 0 00-9.052-10.47v72.205a4.526 4.526 0 004.526 4.526z" fill="#FF8A65"/><path fill-rule="evenodd" clip-rule="evenodd" d="M506 254c0 138.071-112.153 250-250.5 250C117.153 504 5 392.071 5 254S117.153 4 255.5 4C393.847 4 506 115.929 506 254zm-24 0c0 124.771-101.362 226-226.5 226-57.771 0-110.475-21.575-150.478-57.081l319.437-319.437C460.249 143.455 482 196.201 482 254zM87.937 406.063L407.53 86.471C367.343 50.139 314.021 28 255.5 28 130.362 28 29 129.229 29 254c0 58.546 22.318 111.909 58.937 152.063z" fill="#CF526C"/></svg>