<svg width="128" height="128" viewBox="0 0 128 128" fill="none" xmlns="http://www.w3.org/2000/svg">
<g clip-path="url(#clip0)">
<path d="M79.9208 82.5806H27.3695C19.0771 82.5806 12.3548 89.3029 12.3548 97.5952V118.616C12.3548 122.762 15.7159 126.123 19.8622 126.123H87.4282C91.5744 126.123 94.9355 122.762 94.9355 118.616V97.5952C94.9355 89.3029 88.2132 82.5806 79.9208 82.5806Z" fill="#C4E5F9"/>
<path d="M87.4282 118.616H19.8622C15.7159 118.616 12.3548 115.255 12.3548 111.108V118.616C12.3548 122.762 15.7159 126.123 19.8622 126.123H87.4282C91.5744 126.123 94.9355 122.762 94.9355 118.616V111.108C94.9355 115.255 91.5742 118.616 87.4282 118.616Z" fill="#9EB6F4"/>
<path d="M63.9052 73.3215H43.3851V82.5806C43.3851 88.2471 47.9786 92.8406 53.6452 92.8406C59.3117 92.8406 63.9052 88.2471 63.9052 82.5806V73.3215Z" fill="#FFE4C2"/>
<path d="M77.4184 108.606H69.911V126.123H77.4184C82.2556 126.123 86.1769 122.202 86.1769 117.365C86.1769 112.527 82.2556 108.606 77.4184 108.606Z" fill="#FFE4C2"/>
<path d="M77.4184 118.616H69.911V126.123H77.4184C82.2556 126.123 86.1769 122.202 86.1769 117.365C86.1769 116.021 85.8736 114.749 85.3328 113.611C83.927 116.57 80.912 118.616 77.4184 118.616Z" fill="#F2D1A5"/>
<path d="M70.4556 25.7864C67.6899 23.098 64.2438 21.0681 60.39 19.9612L57.7161 20.6406L56.1776 19.1497C55.3458 19.0631 54.5 19.0186 53.6452 19.0186C40.5151 19.0186 29.8719 29.3637 29.8719 42.1264V45.4591C29.8719 58.2216 40.5151 68.5669 53.6452 68.5669C54.5 68.5669 55.3458 68.5224 56.1779 68.4358C56.9116 68.3625 57.6363 68.2536 58.3473 68.1157C63.0266 67.2026 67.2097 64.9539 70.4556 61.7988C74.7575 57.6172 77.4184 51.8404 77.4184 45.4589V42.1261C77.4184 35.7451 74.7575 29.968 70.4556 25.7864Z" fill="#616161"/>
<path d="M70.1613 44.8012V61.4565C70.1613 70.6354 62.7668 78.0762 53.6452 78.0762C44.5235 78.0762 37.129 70.6352 37.129 61.4565V48.0649C39.175 48.5967 41.3942 48.7608 43.7107 48.7608C51.0914 48.7608 57.4646 45.3683 60.456 38.5376C62.9788 41.6186 66.3461 43.8538 70.1613 44.8012Z" fill="#FFE4C2"/>
<path d="M111.201 60.9265V23.0225C111.201 18.8762 107.84 15.5151 103.694 15.5151C99.5477 15.5151 96.1867 18.8762 96.1867 23.0225V60.9265C93.7128 63.1414 92.2226 66.4326 92.4573 70.0652C92.8362 75.9316 97.7885 80.5649 103.667 80.5787C109.899 80.5932 114.955 75.546 114.955 69.3177C114.955 65.9832 113.504 62.9882 111.201 60.9265Z" fill="#F88FA4"/>
<path d="M103.667 73.0713C98.8358 73.06 94.6327 69.9274 93.0772 65.5559C92.582 66.9525 92.3545 68.476 92.4571 70.0651C92.836 75.9315 97.7883 80.5648 103.667 80.5786C109.899 80.5931 114.955 75.5459 114.955 69.3176C114.955 68.0015 114.726 66.7398 114.311 65.5662C112.761 69.9462 108.581 73.0828 103.667 73.0713Z" fill="#F05475"/>
<path d="M103.694 73.3215C105.905 73.3215 107.698 71.5289 107.698 69.3176C107.698 67.1063 105.905 65.3137 103.694 65.3137C101.483 65.3137 99.6901 67.1063 99.6901 69.3176C99.6901 71.5289 101.483 73.3215 103.694 73.3215Z" fill="white"/>
<path d="M75.6667 88.4614H79.4204V92.2151H75.6667V88.4614Z" fill="white"/>
<path d="M26.1183 116.739H29.872V120.493H26.1183V116.739Z" fill="white"/>
<path d="M73.6647 48.7976H33.6256C30.8614 48.7976 28.6207 46.5569 28.6207 43.7927V33.783C28.6207 31.0188 30.8614 28.7781 33.6256 28.7781H73.6647C76.4289 28.7781 78.6696 31.0188 78.6696 33.783V43.7927C78.6696 46.5569 76.4289 48.7976 73.6647 48.7976Z" fill="#C4E5F9"/>
<path d="M73.6647 41.2903H33.6256C30.8614 41.2903 28.6207 39.0496 28.6207 36.2854V43.7927C28.6207 46.5569 30.8614 48.7976 33.6256 48.7976H73.6647C76.4289 48.7976 78.6696 46.5569 78.6696 43.7927V36.2854C78.6696 39.0496 76.4289 41.2903 73.6647 41.2903Z" fill="#9EB6F4"/>
<path d="M75.6667 88.4614H79.4204V92.2151H75.6667V88.4614Z" fill="white"/>
<path d="M26.1183 116.739H29.872V120.493H26.1183V116.739Z" fill="white"/>
<path d="M93.0586 118.616C93.0586 121.721 90.5329 124.246 87.4281 124.246H85.5178C87.0976 122.39 88.0537 119.987 88.0537 117.365C88.0537 112.498 84.7663 108.386 80.2962 107.128V100.348H76.5425V106.729H58.2566V110.483H68.0342V124.246H44.0287V128H87.4281C92.6027 128 96.8123 123.79 96.8123 118.616V110.787H93.0586V118.616ZM77.4184 124.246H71.7879V110.483H77.4184C81.2131 110.483 84.3001 113.57 84.3001 117.365C84.3001 121.159 81.2128 124.246 77.4184 124.246Z" fill="black"/>
<path d="M79.9208 80.7039H65.782V75.3374C69.3207 72.2046 71.6545 67.7308 71.9911 62.7123C75.8931 58.7142 78.3906 53.5454 79.0888 48.0208C80.0009 46.8531 80.5467 45.3859 80.5467 43.7929V33.7831C80.5467 30.0977 77.6348 27.0806 73.991 26.9096C73.3019 26.0373 72.5566 25.208 71.7646 24.439C68.7382 21.4999 64.9837 19.3282 60.9075 18.1581L60.42 18.0182L58.2712 18.5635L57.017 17.348L56.3693 17.2817C55.4624 17.1889 54.546 17.1418 53.6457 17.1418C45.6779 17.1418 38.1453 20.7769 33.2998 26.9096C29.6562 27.0806 26.7444 30.098 26.7444 33.7831V43.7929C26.7444 45.3859 27.2899 46.8531 28.2023 48.0208C28.9002 53.5454 31.3979 58.7139 35.3 62.7123C35.6366 67.7308 37.9704 72.2046 41.5091 75.3374V80.7039H27.3703C18.0562 80.7039 10.4788 88.2813 10.4788 97.5954V99.5258H14.2324V97.5954C14.2324 90.3511 20.1259 84.4576 27.3703 84.4576H41.6547C42.4642 89.6499 46.5768 93.7624 51.7691 94.572V102.6H55.5227V94.572C60.7151 93.7624 64.8276 89.6499 65.6371 84.4576H79.9216C83.6189 84.4576 86.9619 85.9951 89.3515 88.4615H83.1747V92.2152H91.9025C92.4305 93.3861 92.7911 94.647 92.955 95.9688H87.1786V99.7225H93.0594V107.033H96.8131V97.5954C96.8123 88.2813 89.2349 80.7039 79.9208 80.7039ZM72.0381 56.6664V50.6746H73.6647C74.0378 50.6746 74.4037 50.6438 74.7608 50.5863C74.169 52.7394 73.2496 54.7904 72.0381 56.6664ZM35.2522 56.6664C34.0408 54.7904 33.1214 52.7396 32.5295 50.5863C32.8866 50.6436 33.2527 50.6746 33.6256 50.6746H35.2522V56.6664ZM33.6256 46.9209C31.9007 46.9209 30.4976 45.5178 30.4976 43.7929V33.7831C30.4976 32.0582 31.9007 30.655 33.6256 30.655H57.9351V26.9014H38.3873C42.4422 23.0902 47.9101 20.8955 53.6454 20.8955C54.2085 20.8955 54.7793 20.917 55.3496 20.9596L57.1631 22.717L60.3487 21.9088C63.5416 22.904 66.4835 24.6219 68.9051 26.9014H61.689V30.655H73.665C75.3899 30.655 76.793 32.0582 76.793 33.7831V43.7929C76.793 45.5178 75.3899 46.9209 73.665 46.9209H33.6256ZM62.0283 82.5807C62.0283 87.2033 58.2677 90.9639 53.6452 90.9639C49.0226 90.9639 45.262 87.2033 45.262 82.5807V77.9117C47.7779 79.2132 50.6265 79.9532 53.6452 79.9532C56.6639 79.9532 59.5124 79.2135 62.0283 77.9117V82.5807ZM53.6452 76.1995C45.573 76.1995 39.0059 69.5858 39.0059 61.4564V50.6746H68.2845V61.4564C68.2845 69.5858 61.7173 76.1995 53.6452 76.1995Z" fill="black"/>
<path d="M51.7683 0H55.522V3.75367H51.7683V0Z" fill="black"/>
<path d="M51.7683 7.50732H55.522V11.261H51.7683V7.50732Z" fill="black"/>
<path d="M40.5073 3.75366H44.261V7.50733H40.5073V3.75366Z" fill="black"/>
<path d="M40.5073 11.261H44.261V15.0147H40.5073V11.261Z" fill="black"/>
<path d="M63.0293 3.75366H66.783V7.50733H63.0293V3.75366Z" fill="black"/>
<path d="M63.0293 11.261H66.783V15.0147H63.0293V11.261Z" fill="black"/>
<path d="M26.9941 100.348V110.483H54.503V106.729H30.7478V100.348H26.9941Z" fill="black"/>
<path d="M14.5545 120.493H22.3646V116.739H14.2317V112.985H18.8612V109.232H14.2317V103.279H10.478V118.616C10.478 123.79 14.6876 128 19.8622 128H40.2751V124.246H19.8622C17.4153 124.246 15.3292 122.677 14.5545 120.493Z" fill="black"/>
<path d="M48.0464 69.0442L50.2351 72.0939C51.0196 71.5309 52.2943 71.1948 53.6452 71.1948C54.996 71.1948 56.2707 71.5309 57.0552 72.0939L59.2439 69.0442C57.8242 68.0252 55.7835 67.4409 53.6452 67.4409C51.5068 67.4409 49.4661 68.0252 48.0464 69.0442Z" fill="black"/>
<path d="M113.078 23.0226C113.078 17.848 108.869 13.6384 103.694 13.6384C98.5195 13.6384 94.3099 17.848 94.3099 23.0226V26.4097H98.0635V23.0226C98.0635 19.9178 100.589 17.3921 103.694 17.3921C106.799 17.3921 109.325 19.9178 109.325 23.0226V25.1497H104.695V28.9033H109.325V61.7652L109.95 62.3247C111.938 64.1047 113.078 66.6537 113.078 69.3178C113.078 74.4924 108.869 78.702 103.694 78.702H103.672C98.75 78.6905 94.6467 74.8434 94.3301 69.9437C94.3166 69.736 94.3099 69.5255 94.3099 69.3176C94.3099 66.6537 95.4502 64.1047 97.4387 62.3247L98.0635 61.7652V30.1633H94.3099V60.1258C91.9145 62.573 90.5562 65.8764 90.5562 69.3176C90.5562 69.6061 90.5657 69.8984 90.5842 70.1859C91.0277 77.0499 96.7725 82.4391 103.667 82.4554H103.694C110.938 82.4554 116.832 76.5619 116.832 69.3176C116.832 65.8762 115.473 62.5727 113.078 60.1256V23.0226H113.078Z" fill="black"/>
<path d="M101.817 32.7822V63.746C99.4924 64.5312 97.8133 66.7314 97.8133 69.3179C97.8133 72.5606 100.451 75.1986 103.694 75.1986C106.937 75.1986 109.575 72.5606 109.575 69.3179C109.575 66.7314 107.896 64.5312 105.571 63.746V32.7822H101.817ZM105.821 69.3179C105.821 70.4908 104.867 71.445 103.694 71.445C102.521 71.445 101.567 70.4908 101.567 69.3179C101.567 68.145 102.521 67.1908 103.694 67.1908C104.867 67.1908 105.821 68.145 105.821 69.3179Z" fill="black"/>
<path d="M51.719 60.4832L49.2924 58.0565L51.719 55.6299L49.065 52.9758L46.6383 55.4024L44.2117 52.9758L41.5576 55.6299L43.984 58.0565L41.5576 60.4832L44.2117 63.1373L46.6383 60.7106L49.065 63.1373L51.719 60.4832Z" fill="black"/>
<path d="M63.0786 52.9758L60.652 55.4024L58.2254 52.9758L55.5713 55.6299L57.9977 58.0565L55.5713 60.4832L58.2254 63.1373L60.652 60.7106L63.0786 63.1373L65.7327 60.4832L63.3061 58.0565L65.7327 55.6299L63.0786 52.9758Z" fill="black"/>
<path d="M101.817 0H105.571V8.88368H101.817V0Z" fill="black"/>
<path d="M110.514 10.2109L114.271 3.70482L117.522 5.58165L113.765 12.0878L110.514 10.2109Z" fill="black"/>
<path d="M89.863 5.57764L93.1136 3.7008L96.8701 10.2069L93.6194 12.0838L89.863 5.57764Z" fill="black"/>
<path d="M36.0445 41.2144L43.5507 33.7082L46.2045 36.3621L38.6984 43.8682L36.0445 41.2144Z" fill="black"/>
<path d="M48.5552 41.2158L56.0614 33.7097L58.7152 36.3635L51.2091 43.8697L48.5552 41.2158Z" fill="black"/>
<path d="M61.0662 41.217L68.5724 33.7109L71.2262 36.3648L63.7201 43.8709L61.0662 41.217Z" fill="black"/>
</g>
<defs>
<clipPath id="clip0">
<rect width="128" height="128" fill="white"/>
</clipPath>
</defs>
</svg>
