<svg width="512" height="512" fill="none" xmlns="http://www.w3.org/2000/svg"><path d="M512 256c0 91.11-47.6 171.11-119.3 216.48H119.3C47.6 427.11 0 347.11 0 256c0-46.22 12.25-89.57 33.68-127C77.8 51.93 160.84 0 256 0s178.2 51.93 222.32 129C499.75 166.43 512 209.78 512 256z" fill="#464F6E"/><path d="M512 256c0 91.11-47.6 171.11-119.3 216.48H119.3C47.6 427.11 0 347.11 0 256c0-46.22 12.25-89.57 33.68-127 23.06 40.29 56.76 73.7 97.26 96.41a253.784 253.784 0 0056.8 23.38C209.47 254.8 232.36 258 256 258h.01c45.42 0 88.07-11.83 125.06-32.59 40.5-22.71 74.19-56.13 97.25-96.41C499.75 166.43 512 209.78 512 256z" fill="#303C5A"/><path d="M366.671 69.278l-5.123 9.538h-.014l-5.123 9.524a57.149 57.149 0 00-26.984-6.796h-73.42V59.898h73.42a78.885 78.885 0 0137.244 9.38z" fill="#fff"/><path d="M361.534 78.816l-5.123 9.524a57.149 57.149 0 00-26.984-6.796h-73.42V70.721h73.42a67.75 67.75 0 0132.107 8.095z" fill="#CFF6FF"/><path d="M238.691 70.721h34.632v87.071h-34.632V70.721z" fill="#CFF6FF"/><path d="M256.007 70.721h17.316v87.071h-17.316V70.721z" fill="#B0EDF7"/><path d="M301.166 135.96v58.085h-90.332V135.96a6.955 6.955 0 016.955-6.955h76.422a6.954 6.954 0 016.955 6.955z" fill="#20D7FE"/><path d="M301.166 135.96v58.085h-45.162v-65.041h38.207a6.955 6.955 0 016.955 6.956z" fill="#00B3FF"/><path d="M337.898 170.404v105.311H174.102V170.404c0-6.97 5.642-12.612 12.612-12.612h138.572c6.97 0 12.612 5.642 12.612 12.612z" fill="#20D7FE"/><path d="M337.898 170.404v105.311H215.055V170.404c0-6.97 5.642-12.612 12.612-12.612h97.619c6.97 0 12.612 5.642 12.612 12.612z" fill="#00B3FF"/><path d="M337.898 170.397v105.324h-81.891V157.785h69.279c6.965 0 12.612 5.647 12.612 12.612z" fill="#00A4FF"/><path d="M392.7 251.22v221.26C353.15 497.51 306.27 512 256 512c-50.27 0-97.15-14.49-136.7-39.52V251.22c0-10.28 4.5-19.5 11.64-25.81 6.08-5.38 14.07-8.65 22.82-8.65h204.48c8.76 0 16.76 3.27 22.83 8.65 7.13 6.3 11.63 15.53 11.63 25.81z" fill="#fff"/><path d="M392.7 251.22v221.26C353.15 497.51 306.28 512 256.01 512H256c-17.94 0-35.45-1.84-52.34-5.36-9.62-6.11-16.01-16.86-16.01-29.1V251.22c0-.82.03-1.63.09-2.43 1.24-17.91 16.17-32.03 34.37-32.03h136.13c8.76 0 16.76 3.27 22.83 8.65 7.13 6.3 11.63 15.53 11.63 25.81z" fill="#CFF6FF"/><path d="M392.7 251.22v221.26C353.15 497.51 306.28 512 256.01 512V216.76h102.23c8.76 0 16.76 3.27 22.83 8.65 7.13 6.3 11.63 15.53 11.63 25.81z" fill="#B0EDF7"/><path d="M316.815 360.738v40.548h-40.548v40.534h-40.534v-40.534h-40.549v-40.548h40.549v-40.549h40.534v40.549h40.548z" fill="#DE1263"/><path d="M309.803 92.236H202.197c-3.911 0-7.042-3.391-6.58-7.288 3.564-29.899 28.846-53.131 59.611-53.507.245-.014.505-.014.765-.014h.014c31.111 0 56.782 23.377 60.375 53.521.462 3.897-2.669 7.288-6.579 7.288z" fill="#20D7FE"/><path d="M309.803 92.236h-82.396c-2.078 0-3.737-3.391-3.492-7.288 1.876-29.668 15.137-52.785 31.313-53.507.245-.014.505-.014.765-.014h.014c31.111 0 56.782 23.377 60.375 53.521.462 3.897-2.669 7.288-6.579 7.288z" fill="#00B3FF"/><path d="M309.803 92.236h-53.795V31.428c31.111 0 56.782 23.377 60.375 53.521.461 3.896-2.67 7.287-6.58 7.287z" fill="#00A4FF"/><path d="M316.815 360.738v40.548h-40.548v40.534h-20.26V320.189h20.26v40.549h40.548z" fill="#A30856"/><path d="M384.828 142.193c-3.651 3.435-8.354 5.151-13.062 5.151-4.706 0-9.414-1.716-13.065-5.151-7.31-6.873-7.966-18.036-1.968-25.679 2.446-3.118 4.744-6.345 7.007-9.6l6.181-8.892a2.239 2.239 0 011.845-.965c.699 0 1.396.323 1.842.965l6.181 8.892c2.263 3.255 4.561 6.482 7.007 9.6 5.998 7.643 5.342 18.806-1.968 25.679z" fill="#FFBC00"/><path d="M384.828 142.193c-3.651 3.435-8.354 5.151-13.062 5.151V97.057c.699 0 1.396.323 1.842.965l6.181 8.892c2.263 3.255 4.561 6.482 7.007 9.6 5.998 7.643 5.342 18.806-1.968 25.679z" fill="#FF9100"/></svg>