<svg width="150" height="150" viewBox="0 0 150 150" fill="none" xmlns="http://www.w3.org/2000/svg">
<path d="M7.03125 89.0625V77.3438L46.875 93.75L32.8125 96.0938L7.03125 89.0625Z" fill="#E8C8B3"/>
<path d="M82.0313 76.084C79.519 76.0836 77.0525 76.7565 74.8885 78.0327C72.7245 79.3089 70.942 81.1417 69.7267 83.3405C68.3963 82.0801 66.7256 81.2373 64.9213 80.9163C63.117 80.5953 61.2582 80.8101 59.5747 81.5342C57.8912 82.2584 56.4569 83.46 55.449 84.9906C54.4412 86.5213 53.9041 88.3137 53.9041 90.1463C53.9041 91.979 54.4412 93.7714 55.449 95.302C56.4569 96.8326 57.8912 98.0343 59.5747 98.7584C61.2582 99.4826 63.117 99.6974 64.9213 99.3764C66.7256 99.0553 68.3963 98.2125 69.7267 96.9521C70.9266 99.1219 72.679 100.936 74.8061 102.21C76.9332 103.484 79.3593 104.173 81.8386 104.208C84.3179 104.242 86.7622 103.62 88.9236 102.405C91.085 101.19 92.8867 99.425 94.1461 97.2891C95.4055 95.1532 96.0778 92.7223 96.0948 90.2428C96.1118 87.7634 95.4729 85.3235 94.2429 83.1706C93.0129 81.0176 91.2355 79.2282 89.0909 77.9837C86.9464 76.7391 84.5109 76.0838 82.0313 76.084Z" fill="#63D5EE"/>
<path d="M7.03125 89.0625L30.4688 93.75L34.3066 89.1436C39.4412 82.9822 46.3115 78.509 54.0234 76.306C55.308 75.9389 56.6805 76.0325 57.9034 76.5704C59.1263 77.1083 60.1227 78.0569 60.7201 79.2518C61.0565 79.9246 61.2571 80.6571 61.3105 81.4074C61.3638 82.1577 61.2689 82.9111 61.031 83.6248C60.7932 84.3384 60.4171 84.9981 59.9243 85.5664C59.4314 86.1347 58.8315 86.6003 58.1587 86.9367C55.3987 88.3165 53.1608 90.5544 51.7811 93.3143L51.5625 93.75H58.5938V131.25H35.5664C33.9505 131.25 32.3504 130.932 30.8574 130.314C29.3645 129.695 28.0079 128.789 26.8652 127.646L21.0938 121.875L7.03125 117.187V89.0625Z" fill="#F5D3BD"/>
<path d="M82.0312 103.125H58.5938V93.75H82.0312C83.2745 93.75 84.4667 94.2439 85.3458 95.1229C86.2249 96.002 86.7188 97.1943 86.7188 98.4375C86.7188 99.6807 86.2249 100.873 85.3458 101.752C84.4667 102.631 83.2745 103.125 82.0312 103.125Z" fill="#F5D3BD"/>
<path d="M86.0918 100.781C85.8869 101.136 85.6368 101.463 85.3477 101.754C84.9121 102.189 84.395 102.534 83.826 102.77C83.2569 103.005 82.647 103.126 82.0312 103.125H63.2812V100.781H86.0918Z" fill="#F5D3BD"/>
<path d="M86.7188 112.5H58.5938V103.125H86.7188C87.962 103.125 89.1542 103.619 90.0333 104.498C90.9124 105.377 91.4062 106.569 91.4062 107.812C91.4062 109.056 90.9124 110.248 90.0333 111.127C89.1542 112.006 87.962 112.5 86.7188 112.5Z" fill="#F5D3BD"/>
<path d="M82.0312 121.875H58.5938V112.5H82.0312C83.2745 112.5 84.4667 112.994 85.3458 113.873C86.2249 114.752 86.7188 115.944 86.7188 117.188C86.7188 118.431 86.2249 119.623 85.3458 120.502C84.4667 121.381 83.2745 121.875 82.0312 121.875Z" fill="#F5D3BD"/>
<path d="M77.3438 131.25H58.5938V121.875H77.3438C78.587 121.875 79.7792 122.369 80.6583 123.248C81.5374 124.127 82.0312 125.319 82.0312 126.563C82.0312 127.806 81.5374 128.998 80.6583 129.877C79.7792 130.756 78.587 131.25 77.3438 131.25Z" fill="#F5D3BD"/>
<path d="M67.9688 114.844C66.7255 114.844 65.5333 115.338 64.6542 116.217C63.7751 117.096 63.2812 118.288 63.2812 119.531C63.2812 118.288 62.7874 117.096 61.9083 116.217C61.0292 115.338 59.837 114.844 58.5938 114.844C57.3505 114.844 56.1583 115.338 55.2792 116.217C54.4001 117.096 53.9062 118.288 53.9062 119.531V121.875C53.9062 120.632 53.4124 119.44 52.5333 118.56C51.6542 117.681 50.462 117.188 49.2188 117.188C47.9755 117.188 46.7833 117.681 45.9042 118.56C45.0251 119.44 44.5312 120.632 44.5312 121.875V124.219C44.5312 122.976 44.0374 121.783 43.1583 120.904C42.2792 120.025 41.087 119.531 39.8438 119.531C38.6005 119.531 37.4083 120.025 36.5292 120.904C35.6501 121.783 35.1562 122.976 35.1562 124.219V135.938C35.1562 137.181 35.6501 138.373 36.5292 139.252C37.4083 140.131 38.6005 140.625 39.8438 140.625C41.087 140.625 42.2792 140.131 43.1583 139.252C44.0374 138.373 44.5312 137.181 44.5312 135.938V133.594C44.5312 134.837 45.0251 136.029 45.9042 136.908C46.7833 137.787 47.9755 138.281 49.2188 138.281C50.462 138.281 51.6542 137.787 52.5333 136.908C53.4124 136.029 53.9062 134.837 53.9062 133.594V131.25C53.9062 132.493 54.4001 133.685 55.2792 134.565C56.1583 135.444 57.3505 135.938 58.5938 135.938C59.837 135.938 61.0292 135.444 61.9083 134.565C62.7874 133.685 63.2812 132.493 63.2812 131.25V128.906C63.2812 130.149 63.7751 131.342 64.6542 132.221C65.5333 133.1 66.7255 133.594 67.9688 133.594C69.212 133.594 70.4042 133.1 71.2833 132.221C72.1624 131.342 72.6562 130.149 72.6562 128.906V119.531C72.6562 118.288 72.1624 117.096 71.2833 116.217C70.4042 115.338 69.212 114.844 67.9688 114.844Z" fill="#E8C8B3"/>
<path d="M133.594 23.4375H114.844V11.1328C114.844 10.045 115.276 9.00176 116.045 8.23257C116.814 7.46338 117.858 7.03125 118.945 7.03125H129.492C130.58 7.03125 131.623 7.46338 132.392 8.23257C133.162 9.00176 133.594 10.045 133.594 11.1328V23.4375Z" fill="#E4E4E2"/>
<path d="M114.844 11.7188H93.75V11.7671L81.3381 25.7812L89.0625 31.0937L98.4375 21.0938H114.844V11.7188Z" fill="#E4E4E2"/>
<path d="M119.531 23.4375H128.906V42.1875H119.531V23.4375Z" fill="#C3C3C3"/>
<path d="M119.531 23.4375H128.906V28.125H119.531V23.4375Z" fill="#A8A8A8"/>
<path d="M112.5 42.1875H135.938V51.5625H112.5V42.1875Z" fill="#E4E4E2"/>
<path d="M112.5 51.5625H135.938C137.802 51.5625 139.591 52.3033 140.909 53.6219C142.228 54.9405 142.969 56.7289 142.969 58.5938V121.875H105.469V58.5938C105.469 56.7289 106.21 54.9405 107.528 53.6219C108.847 52.3033 110.635 51.5625 112.5 51.5625Z" fill="#0C82ED"/>
<path d="M79.1381 51.9773C79.9948 52.5486 81.0014 52.8534 82.0311 52.8534C83.0608 52.8534 84.0675 52.5486 84.9242 51.9773C86.0396 51.234 86.8259 50.0898 87.12 48.782C87.4141 47.4743 87.1934 46.1036 86.5036 44.9543L82.0311 37.5L77.5587 44.9543C76.8689 46.1036 76.6482 47.4743 76.9423 48.782C77.2364 50.0898 78.0227 51.234 79.1381 51.9773Z" fill="#009CF7"/>
<path d="M63.2812 67.9688C65.8701 67.9688 67.9688 65.8701 67.9688 63.2812C67.9688 60.6924 65.8701 58.5938 63.2812 58.5938C60.6924 58.5938 58.5938 60.6924 58.5938 63.2812C58.5938 65.8701 60.6924 67.9688 63.2812 67.9688Z" fill="#63D5EE"/>
<path d="M42.1875 56.25C46.0708 56.25 49.2188 53.102 49.2188 49.2188C49.2188 45.3355 46.0708 42.1875 42.1875 42.1875C38.3042 42.1875 35.1562 45.3355 35.1562 49.2188C35.1562 53.102 38.3042 56.25 42.1875 56.25Z" fill="#63D5EE"/>
<path d="M103.125 131.25C107.008 131.25 110.156 128.102 110.156 124.219C110.156 120.335 107.008 117.188 103.125 117.188C99.2417 117.188 96.0938 120.335 96.0938 124.219C96.0938 128.102 99.2417 131.25 103.125 131.25Z" fill="#63D5EE"/>
<path d="M103.125 128.906C105.714 128.906 107.812 126.808 107.812 124.219C107.812 121.63 105.714 119.531 103.125 119.531C100.536 119.531 98.4375 121.63 98.4375 124.219C98.4375 126.808 100.536 128.906 103.125 128.906Z" fill="#6AE4FF"/>
<path d="M42.1875 53.9062C44.7763 53.9062 46.875 51.8076 46.875 49.2188C46.875 46.6299 44.7763 44.5312 42.1875 44.5312C39.5987 44.5312 37.5 46.6299 37.5 49.2188C37.5 51.8076 39.5987 53.9062 42.1875 53.9062Z" fill="#6AE4FF"/>
<path d="M63.2812 65.625C64.5757 65.625 65.625 64.5757 65.625 63.2812C65.625 61.9868 64.5757 60.9375 63.2812 60.9375C61.9868 60.9375 60.9375 61.9868 60.9375 63.2812C60.9375 64.5757 61.9868 65.625 63.2812 65.625Z" fill="#6AE4FF"/>
<path d="M88.6626 90.148C88.1778 90.1479 87.705 89.9976 87.3092 89.7176C86.9134 89.4376 86.6142 89.0418 86.4528 88.5847C86.1959 87.859 85.7643 87.2078 85.1962 86.6884C84.6281 86.169 83.9408 85.7974 83.1951 85.6065C82.4493 85.4156 81.6681 85.4112 80.9203 85.5936C80.1724 85.7761 79.481 86.1399 78.907 86.6529C78.6777 86.8581 78.4102 87.0163 78.1198 87.1182C77.8294 87.2201 77.5217 87.2638 77.2144 87.2468C76.9071 87.2298 76.6061 87.1525 76.3287 87.0192C76.0513 86.8859 75.8028 86.6992 75.5975 86.4699C75.3922 86.2406 75.2341 85.9731 75.1322 85.6826C75.0303 85.3922 74.9866 85.0846 75.0036 84.7772C75.0206 84.4699 75.0979 84.169 75.2312 83.8915C75.3645 83.6141 75.5512 83.3657 75.7805 83.1604C76.9281 82.1338 78.3109 81.4057 79.8067 81.0402C81.3024 80.6748 82.8652 80.6834 84.3569 81.0651C85.8486 81.4468 87.2233 82.19 88.3597 83.2291C89.496 84.2681 90.359 85.5709 90.8725 87.0226C90.9971 87.3761 91.0351 87.7544 90.9834 88.1257C90.9317 88.4969 90.7918 88.8504 90.5754 89.1565C90.359 89.4625 90.0724 89.7123 89.7396 89.8848C89.4068 90.0573 89.0375 90.1475 88.6626 90.148Z" fill="#6AE4FF"/>
<path d="M117.188 70.3125H142.969V103.125H117.188V70.3125Z" fill="#009CF7"/>
<path d="M117.188 63.2812H114.844C114.222 63.2812 113.626 63.0343 113.186 62.5948C112.747 62.1552 112.5 61.5591 112.5 60.9375C112.5 60.3159 112.747 59.7198 113.186 59.2802C113.626 58.8407 114.222 58.5938 114.844 58.5938H117.188C117.809 58.5938 118.405 58.8407 118.845 59.2802C119.284 59.7198 119.531 60.3159 119.531 60.9375C119.531 61.5591 119.284 62.1552 118.845 62.5948C118.405 63.0343 117.809 63.2812 117.188 63.2812Z" fill="#009CF7"/>
<path d="M133.594 63.2812H126.562C125.941 63.2812 125.345 63.0343 124.905 62.5948C124.466 62.1552 124.219 61.5591 124.219 60.9375C124.219 60.3159 124.466 59.7198 124.905 59.2802C125.345 58.8407 125.941 58.5938 126.562 58.5938H133.594C134.215 58.5938 134.811 58.8407 135.251 59.2802C135.691 59.7198 135.938 60.3159 135.938 60.9375C135.938 61.5591 135.691 62.1552 135.251 62.5948C134.811 63.0343 134.215 63.2812 133.594 63.2812Z" fill="#009CF7"/>
<path d="M142.969 114.844H121.875C121.253 114.844 120.657 114.597 120.218 114.157C119.778 113.718 119.531 113.122 119.531 112.5C119.531 111.878 119.778 111.282 120.218 110.843C120.657 110.403 121.253 110.156 121.875 110.156H142.969C143.59 110.156 144.186 110.403 144.626 110.843C145.066 111.282 145.312 111.878 145.312 112.5C145.312 113.122 145.066 113.718 144.626 114.157C144.186 114.597 143.59 114.844 142.969 114.844Z" fill="#009CF7"/>
<path d="M112.5 114.844H105.469C104.847 114.844 104.251 114.597 103.811 114.157C103.372 113.718 103.125 113.122 103.125 112.5C103.125 111.878 103.372 111.282 103.811 110.843C104.251 110.403 104.847 110.156 105.469 110.156H112.5C113.122 110.156 113.718 110.403 114.157 110.843C114.597 111.282 114.844 111.878 114.844 112.5C114.844 113.122 114.597 113.718 114.157 114.157C113.718 114.597 113.122 114.844 112.5 114.844Z" fill="#009CF7"/>
<path d="M110.156 11.7188H114.844V21.0938H110.156V11.7188Z" fill="#C3C3C3"/>
<path d="M86.0918 100.781C85.8869 101.136 85.6368 101.463 85.3477 101.754C84.9121 102.189 84.395 102.534 83.826 102.77C83.2569 103.005 82.647 103.126 82.0312 103.125H64.4531C64.1423 103.125 63.8443 103.002 63.6245 102.782C63.4047 102.562 63.2812 102.264 63.2812 101.953C63.2812 101.642 63.4047 101.344 63.6245 101.124C63.8443 100.905 64.1423 100.781 64.4531 100.781H86.0918Z" fill="#E8C8B3"/>
<path d="M90.7793 110.156C90.5744 110.511 90.3243 110.838 90.0352 111.129C89.5996 111.564 89.0825 111.909 88.5135 112.145C87.9444 112.38 87.3345 112.501 86.7187 112.5H64.4531C64.1423 112.5 63.8443 112.377 63.6245 112.157C63.4047 111.937 63.2812 111.639 63.2812 111.328C63.2812 111.017 63.4047 110.719 63.6245 110.499C63.8443 110.28 64.1423 110.156 64.4531 110.156H90.7793Z" fill="#E8C8B3"/>
<path d="M86.0918 119.531C85.8869 119.886 85.6368 120.213 85.3477 120.504C84.9121 120.939 84.395 121.284 83.826 121.52C83.2569 121.755 82.647 121.876 82.0312 121.875H58.5938V119.531H86.0918Z" fill="#E8C8B3"/>
<path d="M81.4043 128.906C81.1994 129.261 80.9493 129.588 80.6602 129.879C80.2246 130.314 79.7075 130.659 79.1385 130.895C78.5694 131.13 77.9595 131.251 77.3437 131.25H53.9062V128.906H81.4043Z" fill="#E8C8B3"/>
<path d="M67.9688 117.188C66.7255 117.188 65.5333 117.681 64.6542 118.56C63.7751 119.44 63.2812 120.632 63.2812 121.875C63.2812 120.632 62.7874 119.44 61.9083 118.56C61.0292 117.681 59.837 117.188 58.5938 117.188C57.3505 117.188 56.1583 117.681 55.2792 118.56C54.4001 119.44 53.9062 120.632 53.9062 121.875V124.219C53.9062 122.976 53.4124 121.783 52.5333 120.904C51.6542 120.025 50.462 119.531 49.2188 119.531C47.9755 119.531 46.7833 120.025 45.9042 120.904C45.0251 121.783 44.5312 122.976 44.5312 124.219V126.562C44.5312 125.319 44.0374 124.127 43.1583 123.248C42.2792 122.369 41.087 121.875 39.8438 121.875C38.6005 121.875 37.4083 122.369 36.5292 123.248C35.6501 124.127 35.1562 125.319 35.1562 126.562V138.281C35.1562 139.524 35.6501 140.717 36.5292 141.596C37.4083 142.475 38.6005 142.969 39.8438 142.969C41.087 142.969 42.2792 142.475 43.1583 141.596C44.0374 140.717 44.5312 139.524 44.5312 138.281V135.938C44.5312 137.181 45.0251 138.373 45.9042 139.252C46.7833 140.131 47.9755 140.625 49.2188 140.625C50.462 140.625 51.6542 140.131 52.5333 139.252C53.4124 138.373 53.9062 137.181 53.9062 135.938V133.594C53.9062 134.837 54.4001 136.029 55.2792 136.908C56.1583 137.787 57.3505 138.281 58.5938 138.281C59.837 138.281 61.0292 137.787 61.9083 136.908C62.7874 136.029 63.2812 134.837 63.2812 133.594V131.25C63.2812 132.493 63.7751 133.685 64.6542 134.565C65.5333 135.444 66.7255 135.938 67.9688 135.938C69.212 135.938 70.4042 135.444 71.2833 134.565C72.1624 133.685 72.6562 132.493 72.6562 131.25V121.875C72.6562 120.632 72.1624 119.44 71.2833 118.56C70.4042 117.681 69.212 117.188 67.9688 117.188Z" fill="#F5D3BD"/>
</svg>
