<svg width="512" height="512" fill="none" xmlns="http://www.w3.org/2000/svg"><g clip-path="url(#clip0)"><path d="M512 256c0 105.63-63.98 196.32-155.31 235.43l-36.37 12.41.01.01C299.77 509.17 278.22 512 256 512s-43.78-2.83-64.34-8.15l-.07-.02-36.29-12.41C63.98 452.32 0 361.63 0 256 0 114.62 114.62 0 256 0s256 114.62 256 256z" fill="#464F6E"/><path d="M512 256c0 87.11-43.52 164.07-110 210.31a255.66 255.66 0 01-45.31 25.13v-.01l-36.37 12.41.01.01C299.78 509.17 278.22 512 256 512c-22.26 0-43.85-2.84-64.43-8.18l-36.27-12.4v.01a255.176 255.176 0 01-45.3-25.12C43.52 420.07 0 343.11 0 256c0-46.22 12.25-89.57 33.68-127C77.8 206.07 160.84 258 256 258s178.21-51.93 222.32-129C499.75 166.43 512 209.78 512 256z" fill="#303C5A"/><path d="M226.59 203.89c0 1.28-.01 2.57-.05 3.83-.53 18.93-8.07 32.78-18.81 41.52-12.2 9.92-19.37 24.69-18.85 40.39l6.75 201.52c0 .23.02.46.02.67 0 4.5-1.48 8.66-3.99 12.03-5.47-1.42-10.87-3.01-16.2-4.78-2.7-.89-5.37-1.83-8.03-2.81-4.09-1.51-8.14-3.12-12.13-4.84-.01-.09 0-.18 0-.27l6.75-201.45c.52-15.73-6.72-30.51-18.93-40.45-10.68-8.7-18.17-22.47-18.73-41.32-.04-1.34-.05-2.67-.05-4.04 0-15.15 2.53-36.43 7.19-58.59 4.68-22.18 22.86-37.98 43.93-37.98 21.08 0 39.26 15.8 43.94 37.98 4.66 22.16 7.19 43.44 7.19 58.59z" fill="#fff"/><path d="M226.59 203.89c0 1.28-.01 2.57-.05 3.83-.53 18.93-8.07 32.78-18.81 41.52-12.2 9.92-19.37 24.69-18.85 40.39l6.75 201.52c0 .23.02.46.02.67 0 4.5-1.48 8.66-3.99 12.03-5.47-1.42-10.87-3.01-16.2-4.78-2.7-.89-5.37-1.83-8.03-2.81a47.1 47.1 0 01-.21-5.11l2.76-201.45c.21-15.73-2.75-30.51-7.75-40.45-4.37-8.7-7.42-22.47-7.66-41.32 0-1.34-.02-2.67-.02-4.04 0-15.15 1.04-36.43 2.94-58.59 1.92-22.18 9.35-37.98 17.97-37.98 21.08 0 39.26 15.8 43.94 37.98 4.66 22.16 7.19 43.44 7.19 58.59z" fill="#D1F6FF"/><path d="M226.59 203.89c0 1.28-.01 2.57-.05 3.83-.53 18.93-8.07 32.78-18.81 41.52-12.2 9.92-19.37 24.69-18.85 40.39l6.75 201.52c0 .23.02.46.02.67 0 4.5-1.48 8.66-3.99 12.03-5.47-1.42-10.87-3.01-16.2-4.78V107.32c21.08 0 39.26 15.8 43.94 37.98 4.66 22.16 7.19 43.44 7.19 58.59z" fill="#B3F4FF"/><path d="M387.66 203.89c0 1.28-.01 2.57-.05 3.83-.53 18.93-8.07 32.78-18.81 41.52-12.2 9.92-19.39 24.69-18.85 40.39l6.73 201.52c0 .09 0 .19.01.28a253.88 253.88 0 01-20.15 7.64c-2.9.96-5.83 1.87-8.78 2.73-2.46.72-4.94 1.4-7.44 2.04a20.075 20.075 0 01-3.95-12.69l6.75-201.45c.52-15.73-6.72-30.51-18.93-40.45-10.68-8.7-18.16-22.47-18.73-41.32-.05-1.34-.07-2.67-.07-4.04 0-15.15 2.55-36.43 7.21-58.59 1.4-6.68 4.03-12.76 7.58-18.03 1.29-1.89 4.22-1.02 4.22 1.27v77.56a6.41 6.41 0 006.73 6.4h.03c3.47-.17 6.09-3.28 6.09-6.76v-89.6c0-2.65 1.64-5.02 4.1-5.98.05-.01.09-.03.13-.05 4.16-1.59 8.63 1.51 8.63 5.98v90.01c0 3.54 2.87 6.41 6.43 6.41.11 0 .21-.01.32-.01 3.47-.17 6.09-3.28 6.09-6.76v-89.65c0-4.47 4.46-7.57 8.62-5.98a6.425 6.425 0 014.24 6.03v89.6c0 3.48 2.61 6.59 6.09 6.76 3.7.19 6.75-2.75 6.75-6.4v-77.53c0-2.29 2.95-3.16 4.24-1.26 3.54 5.24 6.17 11.33 7.56 17.99 4.66 22.16 7.21 43.44 7.21 58.59z" fill="#fff"/><path d="M387.66 203.89c0 1.28-.01 2.57-.05 3.83-.53 18.93-8.07 32.78-18.81 41.52-12.2 9.92-19.39 24.69-18.85 40.39l6.73 201.52c0 .09 0 .19.01.28a253.88 253.88 0 01-20.15 7.64c-2.9.96-5.83 1.87-8.78 2.73-.89-3.13-1.37-6.78-1.31-10.65l3.38-201.45c.26-15.73-3.36-30.51-9.47-40.45-4.9-7.98-8.45-20.23-9.23-36.75h.03c3.47-.17 6.09-3.28 6.09-6.76v-89.6c0-2.65 1.64-5.02 4.1-5.98.05-.01.09-.03.13-.05 4.16-1.59 8.63 1.51 8.63 5.98v90.01c0 3.54 2.87 6.41 6.43 6.41.11 0 .21-.01.32-.01 3.47-.17 6.09-3.28 6.09-6.76v-89.65c0-4.47 4.46-7.57 8.62-5.98a6.425 6.425 0 014.24 6.03v89.6c0 3.48 2.61 6.59 6.09 6.76 3.7.19 6.75-2.75 6.75-6.4v-77.53c0-2.29 2.95-3.16 4.24-1.26 3.54 5.24 6.17 11.33 7.56 17.99 4.66 22.16 7.21 43.44 7.21 58.59z" fill="#D1F6FF"/><path d="M387.66 203.89c0 1.28-.01 2.57-.05 3.83-.53 18.93-8.07 32.78-18.81 41.52-12.2 9.92-19.39 24.69-18.85 40.39l6.73 201.52c0 .09 0 .19.01.28a253.88 253.88 0 01-20.15 7.64V212.51c.11 0 .21-.01.32-.01 3.47-.17 6.09-3.28 6.09-6.76v-89.65c0-4.47 4.46-7.57 8.62-5.98a6.425 6.425 0 014.24 6.03v89.6c0 3.48 2.61 6.59 6.09 6.76 3.7.19 6.75-2.75 6.75-6.4v-77.53c0-2.29 2.95-3.16 4.24-1.26 3.54 5.24 6.17 11.33 7.56 17.99 4.66 22.16 7.21 43.44 7.21 58.59z" fill="#B3F4FF"/><path fill-rule="evenodd" clip-rule="evenodd" d="M512 256c0 141.385-114.615 256-256 256S0 397.385 0 256 114.615 0 256 0s256 114.615 256 256zm-24.527 0c0 127.766-103.588 231.424-231.473 231.424-59.04 0-112.901-22.093-153.782-58.451L428.669 101.87c36.575 40.931 58.804 94.944 58.804 154.13zM84.758 411.712L411.367 84.45C370.298 47.246 315.806 24.576 256 24.576 128.115 24.576 24.527 128.234 24.527 256c0 59.952 22.808 114.595 60.231 155.712z" fill="#CF526C"/></g><defs><clipPath id="clip0"><path fill="#fff" d="M0 0h512v512H0z"/></clipPath></defs></svg>