<svg width="508" height="508" fill="none" xmlns="http://www.w3.org/2000/svg"><path d="M488.113 219.645a152.23 152.23 0 00-3.555 133.779C446.115 442.027 357.863 504 255.14 504c-99.277 0-185.04-57.891-225.386-141.758a224.52 224.52 0 00-7.851-124.15L10 204.83a248.324 248.324 0 0128.054-74.853C81.134 54.713 162.22 4 255.14 4c92.919 0 174.004 50.713 217.086 125.977A248.294 248.294 0 01499 198.824l-10.887 20.821z" fill="#464F6E"/><path fill-rule="evenodd" clip-rule="evenodd" d="M434.7 427.927c44.105-45.082 71.3-106.821 71.3-174.911 0-45.134-12.6-86.466-33.5-123.016l-.137.24-.137-.24a251.168 251.168 0 01-54.923 66.229c-14.739 12.403-30.991 23.129-48.536 32.003a247.234 247.234 0 01-45.711 17.704c-21.242 5.888-43.615 9.033-66.73 9.033-22.968 0-45.204-3.106-66.329-8.926h-.01a246.557 246.557 0 01-46.092-17.811c-20.898-10.565-40.597-23.32-58.12-38.391A251.052 251.052 0 0138.054 130a248.549 248.549 0 00-21.324 48.645c-8.317 25.592-12.724 53.167-11.54 80.718 0 41.703 10.656 79.031 29.095 111.846a249.358 249.358 0 0016.404 26.675C95.938 462.069 170.647 504 255.14 504c70.462 0 134.121-29.161 179.56-76.073z" fill="#303C5A"/><path d="M352 99H156v318h196V99z" fill="#2C9984"/><path d="M362 91H146v325h13.646V104.672h188.708V416H362V91z" fill="#fff"/><path d="M160 105v311l120-42.143V147.143L160 105z" fill="#E6E9EE"/><path d="M173.961 285.25v101.563l50.39-14.844v-89.844l-50.39 3.125zM232.554 281.734v87.891l38.282-10.937v-78.907l-38.282 1.953zM173.961 127.438v124.609l50.39.781V143.062l-50.39-15.624zM232.554 145.797v107.422l38.282.781v-96.484l-38.282-11.719z" fill="#ACB3BA"/><path d="M275 267.5c0 3.656-1.818 6.5-4 6.5s-4-2.844-4-6.5 1.818-6.5 4-6.5 4 2.844 4 6.5z" fill="#F9B54C"/></svg>