<svg width="512" height="512" fill="none" xmlns="http://www.w3.org/2000/svg"><path d="M512 256c0 76.36-33.44 144.92-86.47 191.83h-12.99a98.58 98.58 0 00-52.11 14.88 98.595 98.595 0 00-36.39 40.14v.01C302.37 508.82 279.56 512 256 512c-23.55 0-46.37-3.18-68.03-9.14a98.553 98.553 0 00-36.39-40.15 98.58 98.58 0 00-52.11-14.88H86.48C33.44 400.92 0 332.37 0 256c0-46.22 12.25-89.57 33.68-127C77.8 51.93 160.84 0 256 0s178.2 51.93 222.32 129C499.75 166.43 512 209.78 512 256z" fill="#464F6E"/><path d="M512 256c0 76.36-33.44 144.92-86.47 191.82l-.01.01h-12.98a98.58 98.58 0 00-52.11 14.88 98.553 98.553 0 00-36.39 40.15h-.01C302.37 508.82 279.55 512 256 512c-23.55 0-46.37-3.18-68.03-9.14a98.553 98.553 0 00-36.39-40.15 98.58 98.58 0 00-52.11-14.88H86.48l-.01-.01C33.44 400.91 0 332.37 0 256c0-46.22 12.25-89.57 33.68-127 24.89 43.49 62.18 78.97 107.04 101.62a253.026 253.026 0 0047.26 18.24h.01c21.66 5.96 44.46 9.14 68.01 9.14 23.7 0 46.64-3.22 68.42-9.25a253.71 253.71 0 0046.87-18.13c44.86-22.66 82.14-58.14 107.03-101.62C499.75 166.43 512 209.78 512 256z" fill="#303C5A"/><path d="M256 178.999a9.392 9.392 0 01-9.392-9.392v-25.493a9.392 9.392 0 0118.784 0v25.493a9.392 9.392 0 01-9.392 9.392zM256 444.835a9.392 9.392 0 01-9.392-9.392v-51.964a9.392 9.392 0 0118.784 0v51.964c0 5.186-4.205 9.392-9.392 9.392zm0-88.612a9.392 9.392 0 01-9.392-9.392v-51.964a9.392 9.392 0 0118.784 0v51.964a9.392 9.392 0 01-9.392 9.392zm0-88.612a9.392 9.392 0 01-9.392-9.392v-51.964a9.392 9.392 0 0118.784 0v51.964a9.392 9.392 0 01-9.392 9.392zM256 506.975a9.392 9.392 0 01-9.392-9.392V472.09a9.392 9.392 0 0118.784 0v25.493a9.392 9.392 0 01-9.392 9.392z" fill="#22D7FF"/><path d="M318.875 227.819a1.865 1.865 0 01-1.867 1.867h-8.385l5.932 5.931c.725.725.725 1.91 0 2.64a1.873 1.873 0 01-2.641 0l-5.931-5.931v8.385c0 .992-.779 1.808-1.76 1.862-.037.005-.069.005-.107.005a1.87 1.87 0 01-1.867-1.867v-8.385l-5.926 5.931a1.873 1.873 0 01-2.641 0 1.863 1.863 0 010-2.64l5.926-5.931h-8.38a1.862 1.862 0 01-1.867-1.867c0-1.03.832-1.867 1.867-1.867h8.38l-5.926-5.926a1.863 1.863 0 010-2.64 1.863 1.863 0 012.64 0l5.926 5.926v-8.38a1.865 1.865 0 011.974-1.862c.982.053 1.76.864 1.76 1.861v8.38l5.931-5.926a1.863 1.863 0 012.64 0c.725.731.725 1.91 0 2.64l-5.932 5.926h8.385a1.872 1.872 0 011.869 1.868z" fill="#81F700"/><path d="M318.875 227.819a1.865 1.865 0 01-1.867 1.867h-8.385l5.932 5.931c.725.725.725 1.91 0 2.64a1.873 1.873 0 01-2.641 0l-5.931-5.931v8.385c0 .992-.779 1.808-1.76 1.862v-29.502c.982.053 1.76.864 1.76 1.861v8.38l5.931-5.926a1.863 1.863 0 012.64 0c.725.731.725 1.91 0 2.64l-5.932 5.926h8.385a1.87 1.87 0 011.868 1.867z" fill="#00CC7F"/><path d="M313.2 227.819a8.947 8.947 0 01-8.945 8.945h-.032c-4.923-.016-8.913-4.017-8.913-8.945 0-4.929 3.99-8.924 8.913-8.94h.032c4.939.001 8.945 4.001 8.945 8.94z" fill="#00CC7F"/><path d="M313.2 227.819a8.947 8.947 0 01-8.945 8.945h-.032V218.88h.032c4.939 0 8.945 4 8.945 8.939z" fill="#029291"/><path d="M308.741 227.819a4.486 4.486 0 01-4.486 4.486h-.032a4.486 4.486 0 010-8.972h.032a4.49 4.49 0 014.486 4.486z" fill="#81F700"/><path d="M308.741 227.819a4.486 4.486 0 01-4.486 4.486h-.032v-8.972h.032a4.49 4.49 0 014.486 4.486z" fill="#00CC7F"/><path d="M490.589 336.765a1.865 1.865 0 01-1.867 1.867h-8.385l5.931 5.931a1.874 1.874 0 010 2.64 1.873 1.873 0 01-2.641 0l-5.931-5.931v8.385c0 .992-.779 1.808-1.76 1.862-.037.005-.069.005-.107.005a1.87 1.87 0 01-1.867-1.867v-8.385l-5.926 5.931a1.873 1.873 0 01-2.641 0 1.863 1.863 0 010-2.64l5.926-5.931h-8.38a1.862 1.862 0 01-1.867-1.867c0-1.03.832-1.867 1.867-1.867h8.38l-5.926-5.926a1.863 1.863 0 010-2.64 1.863 1.863 0 012.64 0l5.926 5.926v-8.38a1.865 1.865 0 011.974-1.862c.982.053 1.76.864 1.76 1.862v8.38l5.931-5.926a1.863 1.863 0 012.64 0c.725.731.725 1.91 0 2.64l-5.931 5.926h8.385a1.87 1.87 0 011.869 1.867z" fill="#81F700"/><path d="M490.589 336.765a1.865 1.865 0 01-1.867 1.867h-8.385l5.931 5.931a1.874 1.874 0 010 2.64 1.873 1.873 0 01-2.641 0l-5.931-5.931v8.385c0 .992-.779 1.808-1.76 1.862v-29.502c.982.053 1.76.864 1.76 1.862v8.38l5.931-5.926a1.863 1.863 0 012.64 0c.725.731.725 1.91 0 2.64l-5.931 5.926h8.385a1.868 1.868 0 011.868 1.866z" fill="#00CC7F"/><path d="M484.914 336.765a8.947 8.947 0 01-8.945 8.945h-.032c-4.923-.016-8.913-4.017-8.913-8.945s3.99-8.924 8.913-8.94h.032c4.939 0 8.945 4.001 8.945 8.94z" fill="#00CC7F"/><path d="M484.914 336.765a8.947 8.947 0 01-8.945 8.945h-.032v-17.885h.032c4.939 0 8.945 4.001 8.945 8.94z" fill="#029291"/><path d="M480.455 336.765a4.486 4.486 0 01-4.486 4.486h-.032a4.486 4.486 0 010-8.972h.032a4.49 4.49 0 014.486 4.486z" fill="#81F700"/><path d="M480.455 336.765a4.486 4.486 0 01-4.486 4.486h-.032v-8.972h.032a4.49 4.49 0 014.486 4.486z" fill="#00CC7F"/><path d="M474.297 218.185a2.441 2.441 0 01-2.443 2.443H460.88l7.762 7.762a2.452 2.452 0 010 3.455 2.452 2.452 0 01-3.455 0l-7.762-7.762v10.973a2.44 2.44 0 01-2.303 2.436c-.049.007-.091.007-.14.007a2.446 2.446 0 01-2.443-2.443v-10.973l-7.755 7.762a2.452 2.452 0 01-3.455 0 2.44 2.44 0 010-3.455l7.755-7.762h-10.966a2.437 2.437 0 01-2.443-2.443 2.441 2.441 0 012.443-2.443h10.966l-7.755-7.755a2.44 2.44 0 010-3.455 2.44 2.44 0 013.455 0l7.755 7.755V201.32a2.441 2.441 0 012.443-2.443c.049 0 .091 0 .14.007a2.437 2.437 0 012.303 2.436v10.966l7.762-7.755a2.44 2.44 0 013.455 0 2.452 2.452 0 010 3.455l-7.762 7.755h10.973a2.448 2.448 0 012.444 2.444z" fill="#81F700"/><path d="M474.297 218.185a2.441 2.441 0 01-2.443 2.443H460.88l7.762 7.762a2.452 2.452 0 010 3.455 2.452 2.452 0 01-3.455 0l-7.762-7.762v10.973a2.44 2.44 0 01-2.303 2.436v-38.608a2.437 2.437 0 012.303 2.436v10.966l7.762-7.755a2.44 2.44 0 013.455 0 2.452 2.452 0 010 3.455l-7.762 7.755h10.973a2.448 2.448 0 012.444 2.444z" fill="#00CC7F"/><path d="M466.87 218.185c0 6.464-5.242 11.706-11.706 11.706h-.042c-6.443-.021-11.664-5.256-11.664-11.706 0-6.45 5.221-11.678 11.664-11.699h.042c6.463 0 11.706 5.235 11.706 11.699z" fill="#00CC7F"/><path d="M466.87 218.185c0 6.464-5.242 11.706-11.706 11.706h-.042v-23.405h.042c6.463 0 11.706 5.235 11.706 11.699z" fill="#029291"/><path d="M461.034 218.185a5.87 5.87 0 01-5.87 5.87h-.042a5.87 5.87 0 010-11.741h.042a5.875 5.875 0 015.87 5.871z" fill="#81F700"/><path d="M461.034 218.185a5.87 5.87 0 01-5.87 5.87h-.042v-11.741h.042a5.875 5.875 0 015.87 5.871z" fill="#00CC7F"/><path d="M310.89 436.346a2.441 2.441 0 01-2.443 2.443h-10.973l7.762 7.762a2.452 2.452 0 010 3.455 2.452 2.452 0 01-3.455 0l-7.762-7.762v10.973a2.442 2.442 0 01-2.303 2.436c-.049.007-.091.007-.14.007a2.446 2.446 0 01-2.443-2.443v-10.973l-7.755 7.762a2.452 2.452 0 01-3.455 0 2.44 2.44 0 010-3.455l7.755-7.762h-10.966a2.437 2.437 0 01-2.443-2.443 2.441 2.441 0 012.443-2.443h10.966l-7.755-7.755a2.44 2.44 0 010-3.455 2.44 2.44 0 013.455 0l7.755 7.755v-10.966a2.441 2.441 0 012.443-2.443c.049 0 .091 0 .14.007a2.437 2.437 0 012.303 2.436v10.966l7.762-7.755a2.44 2.44 0 013.455 0 2.452 2.452 0 010 3.455l-7.762 7.755h10.973a2.446 2.446 0 012.443 2.443z" fill="#81F700"/><path d="M310.89 436.346a2.441 2.441 0 01-2.443 2.443h-10.973l7.762 7.762a2.452 2.452 0 010 3.455 2.452 2.452 0 01-3.455 0l-7.762-7.762v10.973a2.442 2.442 0 01-2.303 2.436v-38.608a2.437 2.437 0 012.303 2.436v10.966l7.762-7.755a2.44 2.44 0 013.455 0 2.452 2.452 0 010 3.455l-7.762 7.755h10.973a2.447 2.447 0 012.443 2.444z" fill="#00CC7F"/><path d="M303.463 436.346c0 6.464-5.242 11.706-11.706 11.706h-.042c-6.443-.021-11.664-5.256-11.664-11.706 0-6.45 5.221-11.678 11.664-11.699h.042c6.464 0 11.706 5.236 11.706 11.699z" fill="#00CC7F"/><path d="M303.463 436.346c0 6.464-5.242 11.706-11.706 11.706h-.042v-23.405h.042c6.464 0 11.706 5.236 11.706 11.699z" fill="#029291"/><path d="M297.628 436.346a5.87 5.87 0 01-5.87 5.87h-.042a5.87 5.87 0 010-11.741h.042a5.876 5.876 0 015.87 5.871z" fill="#81F700"/><path d="M297.628 436.346a5.87 5.87 0 01-5.87 5.87h-.042v-11.741h.042a5.876 5.876 0 015.87 5.871z" fill="#00CC7F"/><path d="M109.301 203.321H98.795c-8.507 0-15.403-6.896-15.403-15.403 0-5.802 4.703-10.505 10.505-10.505H109.3v25.908h.001zM166.282 203.321h10.505c8.507 0 15.403-6.896 15.403-15.403 0-5.802-4.703-10.505-10.505-10.505h-15.403v25.908z" fill="#FFA67D"/><path d="M215.78 308.55v41.33c0 14.4-5.4 28.26-15.14 38.86l-11.53 12.57v95.85c0 2.02-.4 3.95-1.14 5.7a253.478 253.478 0 01-50.18-19.74 256.465 256.465 0 01-51.31-35.29l-.01-.01v-46.51l-11.54-12.57a57.414 57.414 0 01-15.14-38.86V309.3c0-23.49 10.29-44.72 26.62-59.19 13.7-12.15 31.64-19.54 51.34-19.55h.04c.98 0 1.96.02 2.93.06 17.97.66 34.39 7.4 47.26 18.24h.01c.44.37.87.74 1.3 1.12 16.24 14.29 26.49 35.23 26.49 58.57z" fill="#fff"/><path d="M215.78 308.55v41.33c0 14.4-5.4 28.26-15.14 38.86l-11.53 12.57v95.85c0 2.02-.4 3.95-1.14 5.7a253.478 253.478 0 01-50.18-19.74V230.56c.98 0 1.96.02 2.93.06 17.97.66 34.39 7.41 47.26 18.24 17 14.3 27.8 35.74 27.8 59.69z" fill="#CFF6FF"/><path d="M189.293 249.981c-13.503 12.559-31.606 20.244-51.506 20.244-19.831 0-37.88-7.632-51.372-20.115 13.696-12.145 31.638-19.541 51.335-19.552h.038c19.739 0 37.766 7.337 51.505 19.423z" fill="#CFF6FF"/><path d="M189.293 249.981c-13.503 12.559-31.606 20.244-51.506 20.244v-39.667c19.74 0 37.767 7.337 51.506 19.423z" fill="#B0EDF7"/><path d="M176.788 185.831v17.49c0 21.06-16.605 38.651-37.657 39.23a50.099 50.099 0 01-2.679 0c-21.052-.575-37.656-18.171-37.656-39.23V185.83c0-21.059 16.605-38.655 37.656-39.23a49.282 49.282 0 012.679 0c21.051.579 37.657 18.171 37.657 39.231z" fill="#FFC0A3"/><path d="M176.788 185.831v17.49c0 21.06-16.605 38.651-37.657 39.23-.447.012-.895.018-1.345.018v-95.988c.45 0 .898.006 1.345.018 21.051.58 37.657 18.172 37.657 39.232z" fill="#FFA67D"/><path d="M215.79 341.25v8.63c0 14.4-5.41 28.26-15.14 38.86l-11.54 12.57v95.85c0 2.02-.4 3.95-1.14 5.7-38.13-10.49-72.7-29.57-101.49-55.03v-46.52l-11.54-12.57a57.414 57.414 0 01-15.14-38.86v-8.63h155.99z" fill="#22D7FF"/><path d="M215.78 341.25v8.63c0 14.4-5.4 28.26-15.14 38.86l-11.53 12.57v95.85c0 2.02-.4 3.95-1.14 5.7a253.478 253.478 0 01-50.18-19.74V341.25h77.99z" fill="#00B3FF"/><path d="M86.474 309.296v92.011l-11.54-12.564a57.426 57.426 0 01-15.14-38.862v-40.585h26.68z" fill="#FFC0A3"/><path d="M189.105 309.296v92.011l11.539-12.564a57.426 57.426 0 0015.14-38.862v-40.585h-26.679z" fill="#FFA67D"/><path d="M128.948 196.156a7.046 7.046 0 10-13.787-2.918 7.046 7.046 0 0013.787 2.918z" fill="#63455D"/><path d="M160.358 196.17a7.047 7.047 0 10-13.788-2.918 7.047 7.047 0 0013.788 2.918z" fill="#53354B"/><path d="M149.006 210.899c2.211 0 3.832 2.122 3.209 4.243-1.831 6.238-7.597 10.795-14.431 10.795-6.829 0-12.595-4.557-14.426-10.795-.623-2.122.998-4.243 3.209-4.243h22.439z" fill="#63455D"/><path d="M182.872 169.633l-6.086 6.021v10.176a40.095 40.095 0 01-35.556-21.564l-3.44-6.601-.005.011-3.435 6.591a40.023 40.023 0 01-14.764 15.752 40.059 40.059 0 01-20.792 5.812v-10.176l-6.086-6.021c0-21.21 17.19-38.401 38.4-38.401h13.369c21.204-.001 38.395 17.189 38.395 38.4z" fill="#FFDC00"/><path d="M182.872 169.633l-6.086 6.021v10.176a40.095 40.095 0 01-35.556-21.564l-3.44-6.601-.005.011v-26.443h6.693c21.203-.001 38.394 17.189 38.394 38.4z" fill="#FFBC00"/><path d="M152.215 215.142c-1.831 6.238-7.597 10.795-14.431 10.795v-15.038h11.222c2.211 0 3.832 2.122 3.209 4.243z" fill="#53354B"/><path d="M345.72 203.321h-10.505c-8.507 0-15.403-6.896-15.403-15.403 0-5.802 4.703-10.505 10.505-10.505h15.403v25.908zM402.702 203.321h10.505c8.507 0 15.403-6.896 15.403-15.403 0-5.802-4.703-10.505-10.505-10.505h-15.403v25.908z" fill="#FFA67D"/><path d="M452.2 308.55v41.33c0 14.4-5.4 28.26-15.14 38.86l-11.53 12.57v46.51a255.881 255.881 0 01-51.32 35.3 253.478 253.478 0 01-50.18 19.74c-.74-1.75-1.14-3.68-1.14-5.7v-95.85l-11.54-12.57a57.414 57.414 0 01-15.14-38.86V309.3c0-23.49 10.29-44.72 26.62-59.19.52-.46 1.05-.92 1.59-1.36 12.8-10.77 29.05-17.47 46.87-18.13.95-.04 1.91-.06 2.88-.06h.04c19.74 0 37.76 7.33 51.5 19.42 16.24 14.29 26.49 35.23 26.49 58.57z" fill="#fff"/><path d="M452.2 308.55v41.33c0 14.4-5.4 28.26-15.14 38.86l-11.53 12.57v46.51a255.881 255.881 0 01-51.32 35.3V230.56c43.07 0 77.99 34.92 77.99 77.99z" fill="#CFF6FF"/><path d="M425.713 249.981c-13.503 12.559-31.606 20.244-51.507 20.244-19.831 0-37.88-7.632-51.372-20.115 13.697-12.145 31.638-19.541 51.335-19.552h.038c19.739 0 37.767 7.337 51.506 19.423z" fill="#CFF6FF"/><path d="M425.713 249.981c-13.503 12.559-31.606 20.244-51.507 20.244v-39.667c19.74 0 37.768 7.337 51.507 19.423z" fill="#B0EDF7"/><path d="M413.209 185.83v17.491c0 21.06-16.605 38.653-37.66 39.232a54.53 54.53 0 01-2.678 0c-21.049-.574-37.654-18.172-37.654-39.232V185.83c0-21.06 16.605-38.653 37.654-39.232a53.808 53.808 0 012.678 0c21.055.579 37.66 18.172 37.66 39.232z" fill="#FFC0A3"/><path d="M413.207 185.831v17.49c0 21.06-16.605 38.651-37.657 39.23-.447.012-.895.018-1.345.018v-95.988c.45 0 .898.006 1.345.018 21.052.58 37.657 18.172 37.657 39.232z" fill="#FFA67D"/><path d="M413.209 185.83v4.535h-77.992v-4.535c0-21.06 16.605-38.653 37.654-39.232a53.808 53.808 0 012.678 0c21.055.579 37.66 18.172 37.66 39.232z" fill="#FC5B5B"/><path d="M413.209 185.83v4.535h-39.001v-43.783c.445 0 .896.005 1.342.016 21.054.579 37.659 18.172 37.659 39.232z" fill="#FF3D3B"/><path d="M452.21 341.25v8.63c0 14.4-5.41 28.26-15.14 38.86l-11.54 12.57v46.51c-28.79 25.47-63.37 44.55-101.5 55.04-.74-1.75-1.14-3.68-1.14-5.7v-95.85l-11.53-12.57a57.367 57.367 0 01-15.14-38.86v-8.63h155.99z" fill="#85EF47"/><path d="M452.2 341.25v8.63c0 14.4-5.4 28.26-15.14 38.86l-11.53 12.57v46.51a255.881 255.881 0 01-51.32 35.3V341.25h77.99z" fill="#02BD57"/><path d="M322.893 309.296v92.011l-11.539-12.564a57.426 57.426 0 01-15.14-38.862v-40.585h26.679z" fill="#FFC0A3"/><path d="M425.525 309.296v92.011l11.539-12.564a57.426 57.426 0 0015.14-38.862v-40.585h-26.679z" fill="#FFA67D"/><path d="M365.519 196.256a7.046 7.046 0 10-13.787-2.918 7.046 7.046 0 0013.787 2.918z" fill="#63455D"/><path d="M396.929 196.269a7.047 7.047 0 10-13.79-2.917 7.047 7.047 0 0013.79 2.917z" fill="#53354B"/><path d="M385.49 229.134c2.211 0 3.832-2.122 3.209-4.243-1.831-6.238-7.597-10.795-14.431-10.795-6.829 0-12.594 4.557-14.426 10.795-.623 2.122.998 4.243 3.209 4.243h22.439z" fill="#63455D"/><path d="M419.356 169.633l-6.086 6.021v10.176a40.095 40.095 0 01-35.556-21.564l-3.44-6.601-.005.011-3.435 6.591a40.023 40.023 0 01-14.764 15.752 40.059 40.059 0 01-20.792 5.812v-10.176l-6.086-6.021c0-21.21 17.19-38.401 38.4-38.401h13.369c21.205-.001 38.395 17.189 38.395 38.4z" fill="#FFDC00"/><path d="M419.356 169.633l-6.086 6.021v10.176a40.095 40.095 0 01-35.556-21.564l-3.44-6.601-.005.011v-26.443h6.693c21.204-.001 38.394 17.189 38.394 38.4z" fill="#FFBC00"/><path d="M388.699 224.891c-1.831-6.238-7.597-10.795-14.431-10.795v15.038h11.222c2.212 0 3.832-2.121 3.209-4.243z" fill="#53354B"/><path d="M350.4 210.899h-7.708a2.913 2.913 0 110-5.826h7.708a2.913 2.913 0 110 5.826zM404.327 210.899h-7.708a2.913 2.913 0 110-5.826h7.708a2.913 2.913 0 110 5.826z" fill="#FF3D3B"/><path d="M408.061 194.206a27 27 0 01-1.316-2.224l-.835-1.58a.49.49 0 00-.867 0l-.835 1.58a27 27 0 01-1.316 2.224 3.093 3.093 0 00.461 3.946c1.173 1.109 3.075 1.109 4.247 0a3.091 3.091 0 00.461-3.946zM346.019 196.798c-.29-.429-.587-.854-.829-1.312l-1.302-2.463a.49.49 0 00-.867 0l-1.302 2.463c-.242.458-.54.882-.829 1.312a3.097 3.097 0 00.898 4.335 3.078 3.078 0 003.334 0 3.098 3.098 0 00.897-4.335zM371.281 177.018c-.29-.43-.587-.854-.829-1.312l-1.302-2.463a.49.49 0 00-.867 0l-1.302 2.464c-.242.458-.54.882-.829 1.311a3.097 3.097 0 00.898 4.335 3.078 3.078 0 003.334 0 3.098 3.098 0 00.897-4.335z" fill="#fff"/></svg>