<svg width="128" height="128" viewBox="0 0 128 128" fill="none" xmlns="http://www.w3.org/2000/svg">
<g clip-path="url(#clip0)">
<path d="M126.125 85.5444V116.814C126.125 121.957 121.955 126.124 116.812 126.124H11.1875C6.045 126.124 1.875 121.957 1.875 116.814V85.4469C3.74 84.1869 5.7975 83.1894 7.9925 82.5069C10.1775 81.8294 12.5 81.4644 14.905 81.4644H112.95C114.64 81.4644 116.287 81.6444 117.875 81.9869C118.4 82.0994 118.918 82.2319 119.43 82.3794C121.848 83.0744 124.1 84.1544 126.125 85.5444Z" fill="#C4E5F9"/>
<path d="M126.125 85.5443V116.814C126.125 121.957 121.955 126.124 116.812 126.124H108.565C113.708 126.124 117.875 121.957 117.875 116.814V81.9868C118.4 82.0993 118.918 82.2318 119.43 82.3793C121.847 83.0743 124.1 84.1543 126.125 85.5443Z" fill="#9EB6F4"/>
<path d="M119.43 82.3794V82.5069C104.51 97.4244 84.0798 105.009 63.7098 105.057C43.3423 105.009 22.9097 97.4244 7.99225 82.5069C10.1772 81.8294 12.4997 81.4644 14.9047 81.4644H112.95C115.2 81.4644 117.375 81.7844 119.43 82.3794Z" fill="#E4F4FF"/>
<path d="M108.286 81.462L108.228 81.5095C82.0257 102.032 45.1982 102.015 19.0182 81.462C21.9982 81.462 24.8482 80.6395 27.4632 79.1545C30.0782 77.672 32.4608 75.5295 34.5033 72.8895C37.9858 68.007 40.0307 62.157 41.0832 57.1695C41.7282 54.1145 41.9982 51.3845 41.9982 49.3945H85.3057C85.3057 51.402 85.5807 54.1645 86.2383 57.252C87.2958 62.222 89.3382 68.0345 92.8008 72.8895C96.8883 78.167 102.326 81.462 108.286 81.462Z" fill="#FFEAC5"/>
<path d="M86.2383 57.252C85.3533 58.002 84.4508 58.7495 83.5358 59.4895C77.9758 64.0095 70.9558 66.502 63.7783 66.502H63.6608C56.4683 66.502 49.4383 64.0045 43.8583 59.4645C42.9083 58.6945 41.9833 57.9295 41.0833 57.1695C41.7283 54.1145 41.9983 51.3845 41.9983 49.3945H85.3058C85.3058 51.402 85.5808 54.1645 86.2383 57.252Z" fill="#FFC69F"/>
<path d="M103.34 20.8568C103.34 29.0418 97.3172 38.6043 85.4147 49.3493C83.5672 51.0143 81.5797 52.7118 79.4497 54.4343C75.0047 58.0468 69.4472 60.0168 63.7147 60.0018C57.9747 60.0143 52.4097 58.0418 47.9597 54.4218C32.1172 41.6018 24.0822 30.3068 24.0822 20.8568C24.0822 19.8543 24.1172 18.8493 24.2047 17.8868C24.3672 16.2293 24.4797 13.1968 24.5422 9.37427C24.5797 7.11177 24.5972 4.57177 24.5997 1.87427H102.82C102.825 9.11427 102.957 15.2268 103.217 17.8618C103.3 18.8493 103.34 19.8543 103.34 20.8568Z" fill="#FFEAC5"/>
<path d="M63.7108 82.5503C66.2308 82.5503 68.2738 80.5074 68.2738 77.9873C68.2738 75.4672 66.2308 73.4243 63.7108 73.4243C61.1907 73.4243 59.1478 75.4672 59.1478 77.9873C59.1478 80.5074 61.1907 82.5503 63.7108 82.5503Z" fill="#FF2261"/>
<path d="M68.2738 77.9873C68.2738 80.5073 66.2313 82.5498 63.7113 82.5498C62.8813 82.5498 62.1013 82.3273 61.4313 81.9373C62.7938 81.1498 63.7113 79.6748 63.7113 77.9873C63.7113 76.2998 62.7938 74.8248 61.4313 74.0373C62.1013 73.6473 62.8813 73.4248 63.7113 73.4248C66.2313 73.4248 68.2738 75.4673 68.2738 77.9873Z" fill="#B7305D"/>
<path d="M103.217 17.8618C103.3 18.8493 103.34 19.8543 103.34 20.8568C103.34 29.0418 97.3175 38.6043 85.415 49.3493C85.38 49.3493 85.3625 49.3493 85.3625 49.3493C85.3625 49.3493 96.4925 31.6768 95.125 20.8568C94.9975 19.8618 95.0825 18.8493 95.0025 17.8618C94.7425 15.2268 94.61 9.11427 94.605 1.87427H102.82C102.825 9.11427 102.957 15.2268 103.217 17.8618Z" fill="#FFC69F"/>
<path d="M75.169 38.8887C71.4885 38.0275 67.6527 37.572 63.71 37.572C59.7672 37.572 55.9315 38.0275 52.253 38.8887C54.6072 35.0262 57.5577 30.1982 63.71 30.1982C69.8642 30.1982 72.8147 35.0265 75.169 38.8887Z" fill="#FFC69F"/>
<path d="M9.26323 52.2669L14.3857 48.4344L1.87573 42.2344L7.25323 38.2119L11.9332 34.7144L26.1732 46.2569L22.2082 49.4344L29.5807 60.6744L9.26323 52.2669Z" fill="#FFE527"/>
<path d="M17.9532 45.7694L14.3857 48.4344L1.87573 42.2344L7.25323 38.2119L17.9532 45.7694Z" fill="#FFBD29"/>
<path d="M118.737 52.363L113.615 48.5305L126.125 42.3305L120.747 38.308L116.067 34.8105L101.827 46.353L105.792 49.5305L98.42 60.7705L118.737 52.363Z" fill="#FFE527"/>
<path d="M110.047 45.8656L113.615 48.5306L126.125 42.3306L120.747 38.3081L110.047 45.8656Z" fill="#FFBD29"/>
<path d="M59.4323 17.9538C59.4323 15.5945 61.3518 13.6755 63.7108 13.6755C66.0698 13.6755 67.989 15.5948 67.989 17.9538C67.989 18.9893 68.8283 19.8288 69.864 19.8288C70.8998 19.8288 71.739 18.9893 71.739 17.9538C71.739 13.5268 68.1375 9.92554 63.7108 9.92554C59.2838 9.92554 55.6823 13.527 55.6823 17.9538C55.6823 18.9893 56.5215 19.8288 57.5573 19.8288C58.593 19.8288 59.4323 18.9893 59.4323 17.9538Z" fill="black"/>
<path d="M127.187 83.998C122.986 81.1125 118.063 79.5873 112.95 79.5873H108.345C103.244 79.5873 98.2803 76.811 94.3645 71.7695C89.0565 64.309 87.4265 54.8508 87.2548 50.2013C99.1775 39.287 105.215 29.437 105.215 20.8568C105.215 19.7998 105.172 18.7393 105.086 17.7043C105.085 17.6945 105.084 17.685 105.083 17.6755C104.842 15.2328 104.701 9.47302 104.695 1.87277C104.695 0.837773 103.855 -0.000976562 102.82 -0.000976562H94.6042C93.5685 -0.000976562 92.7292 0.838523 92.7292 1.87402C92.7292 2.90952 93.5685 3.74902 94.6042 3.74902H100.95C100.976 10.5283 101.119 15.6748 101.35 18.0288C101.427 18.9563 101.465 19.9075 101.465 20.8565C101.465 29.716 93.6615 40.522 78.2673 52.9773C74.1807 56.2988 69.0375 58.126 63.77 58.126C63.735 58.1263 63.7012 58.126 63.6662 58.126C58.3897 58.126 53.2332 56.2945 49.14 52.9638C33.7565 40.5155 25.9562 29.7133 25.9562 20.8568C25.9562 19.8575 25.9952 18.914 26.0705 18.0693C26.2738 16.0003 26.371 12.2155 26.417 9.40502C26.4452 7.67602 26.4638 5.78027 26.4715 3.74927H85.9112C86.947 3.74927 87.7862 2.90977 87.7862 1.87427C87.7862 0.838773 86.947 -0.000726562 85.9112 -0.000726562H24.6003C23.5653 -0.000726562 22.726 0.837773 22.7253 1.87302C22.7232 4.59952 22.7038 7.11302 22.6672 9.34377C22.6033 13.274 22.4895 16.1645 22.3368 17.7193C22.25 18.691 22.2062 19.7468 22.2062 20.8568C22.2062 29.4368 28.2453 39.287 40.1673 50.1995C39.996 54.8483 38.3662 64.3078 33.058 71.7693C29.1422 76.8108 24.1793 79.5865 19.079 79.5873C19.0785 79.5873 19.0777 79.5873 19.0772 79.5873H14.9058C12.3593 79.5873 9.85825 79.9675 7.4695 80.705C7.45175 80.7103 7.43425 80.7165 7.41675 80.7223C5.09125 81.4458 2.87275 82.5075 0.825 83.892C0.30925 84.2408 0 84.8228 0 85.4453V116.813C0 122.981 5.018 127.999 11.1862 127.999C12.222 127.999 13.0612 127.16 13.0612 126.124C13.0612 125.089 12.222 124.249 11.1862 124.249C7.086 124.249 3.75 120.913 3.75 116.813V86.4678C4.94625 85.7363 6.2045 85.1308 7.50725 84.6513C14.8015 91.7245 23.409 97.2588 33.1175 101.101C42.831 104.944 53.1227 106.905 63.7152 106.93C76.827 106.9 89.8037 103.801 101.243 97.9685C102.165 97.4983 102.532 96.369 102.062 95.4465C101.591 94.524 100.462 94.1578 99.5397 94.6278C88.6227 100.194 76.232 103.151 63.715 103.18C53.6025 103.157 43.7722 101.284 34.4972 97.6135C25.9955 94.2495 18.383 89.5275 11.8185 83.5598C12.8345 83.4133 13.8653 83.337 14.9055 83.337H18.44C24.9023 88.3193 32.074 92.1768 39.771 94.8003C47.4743 97.4255 55.5157 98.759 63.6722 98.7633H63.711C71.8545 98.7633 79.884 97.4383 87.578 94.825C95.3015 92.2015 102.498 88.3358 108.982 83.3373H112.95C113.861 83.3373 114.763 83.397 115.656 83.5095C112.841 86.07 109.81 88.4235 106.607 90.5255C105.741 91.0935 105.5 92.256 106.068 93.1218C106.428 93.6703 107.027 93.9683 107.638 93.9683C107.991 93.9683 108.348 93.8688 108.665 93.6605C112.746 90.9818 116.563 87.9128 120.031 84.5373C121.5 85.0515 122.914 85.7253 124.25 86.5568V116.813C124.25 120.913 120.914 124.249 116.813 124.249H19.8848C18.849 124.249 18.0098 125.089 18.0098 126.124C18.0098 127.16 18.849 127.999 19.8848 127.999H116.813C122.982 127.999 128 122.981 128 116.813V85.5435C128 84.9258 127.696 84.3478 127.187 83.998ZM86.3717 91.2743C79.0675 93.7553 71.4435 95.0135 63.7113 95.0135C63.6987 95.0135 63.6865 95.0135 63.6743 95.0135C55.9295 95.0095 48.294 93.7435 40.9808 91.251C34.9115 89.1823 29.1842 86.3075 23.902 82.6815C28.4062 81.4428 32.6042 78.479 36.045 74.0368C36.06 74.0173 36.0747 73.9975 36.089 73.9775C40.943 67.1728 43.0028 58.8468 43.6698 53.2943C44.6715 54.1488 45.706 55.0093 46.7772 55.876C51.5335 59.7465 57.5298 61.8765 63.658 61.8765C63.6978 61.8765 63.7378 61.8768 63.7783 61.8765C69.896 61.8763 75.8795 59.751 80.6292 55.8905C81.706 55.0193 82.7455 54.1548 83.752 53.2958C84.4193 58.8483 86.479 67.1733 91.3327 73.9773C91.347 73.9973 91.3615 74.017 91.3767 74.0365C94.8177 78.479 99.0167 81.4415 103.521 82.6798C98.2185 86.3203 92.4672 89.2038 86.3717 91.2743Z" fill="black"/>
<path d="M50.6515 37.913C50.2583 38.5582 50.2908 39.3765 50.7338 39.9885C51.177 40.6005 51.9443 40.8867 52.68 40.7145C59.8633 39.0325 67.5523 39.0322 74.7415 40.7145C74.8835 40.7477 75.027 40.764 75.1688 40.764C75.7615 40.764 76.3303 40.4822 76.6875 39.9885C77.1305 39.3765 77.163 38.5582 76.7698 37.913C74.303 33.866 70.9245 28.3232 63.7098 28.3232C56.4968 28.3232 53.1185 33.866 50.6515 37.913ZM63.71 32.0732C67.1195 32.0732 69.377 33.9165 71.1635 36.2285C68.7023 35.875 66.209 35.697 63.71 35.697C61.2113 35.697 58.7183 35.875 56.2583 36.2282C58.0445 33.9167 60.302 32.0732 63.71 32.0732Z" fill="black"/>
<path d="M73.2738 76.1123H69.8695C69.7468 75.7101 69.5858 75.3243 69.3903 74.9596L71.0295 73.3203C71.7618 72.5881 71.7618 71.4008 71.0295 70.6688C70.297 69.9366 69.11 69.9366 68.3778 70.6688L66.7385 72.3081C66.3738 72.1128 65.9883 71.9516 65.586 71.8291V68.4248C65.586 67.3893 64.7468 66.5498 63.711 66.5498C62.6753 66.5498 61.836 67.3893 61.836 68.4248V71.8291C61.4338 71.9518 61.048 72.1128 60.6833 72.3083L56.278 67.9028C55.5458 67.1706 54.3588 67.1706 53.6263 67.9028C52.894 68.6351 52.894 69.8223 53.6263 70.5543L58.0318 74.9598C57.8365 75.3246 57.6753 75.7103 57.5525 76.1126H54.1483C53.1125 76.1126 52.2733 76.9521 52.2733 77.9876C52.2733 79.0231 53.1125 79.8626 54.1483 79.8626H57.5525C57.6753 80.2648 57.8365 80.6506 58.0318 81.0153L56.3925 82.6543C55.66 83.3866 55.66 84.5736 56.3923 85.3058C56.7585 85.6721 57.2383 85.8551 57.7183 85.8551C58.198 85.8551 58.678 85.6721 59.044 85.3058L60.6833 83.6665C61.048 83.8618 61.4338 84.0231 61.8363 84.1458V87.5501C61.8363 88.5856 62.6755 89.4251 63.7113 89.4251C64.747 89.4251 65.5863 88.5856 65.5863 87.5501V84.1458C65.9885 84.0231 66.374 83.8621 66.7388 83.6668L71.1443 88.0723C71.5105 88.4383 71.9905 88.6216 72.4703 88.6216C72.95 88.6216 73.43 88.4386 73.7963 88.0723C74.5285 87.3401 74.5285 86.1528 73.7963 85.4208L69.3905 81.0153C69.5858 80.6506 69.747 80.2648 69.8698 79.8626H73.274C74.3098 79.8626 75.149 79.0231 75.149 77.9876C75.149 76.9521 74.3093 76.1123 73.2738 76.1123ZM63.711 80.6751C62.2288 80.6751 61.023 79.4693 61.023 77.9873C61.023 76.5053 62.2288 75.2996 63.711 75.2996C65.193 75.2996 66.3988 76.5053 66.3988 77.9873C66.3988 79.4693 65.1928 80.6751 63.711 80.6751Z" fill="black"/>
<path d="M1.04225 43.9145L10.8203 48.7608L8.14 50.765C7.6 51.1688 7.3185 51.8313 7.4025 52.5C7.4865 53.1688 7.923 53.7413 8.54575 53.999L28.8635 62.4068C29.096 62.503 29.3393 62.5493 29.58 62.5493C30.127 62.5493 30.6608 62.3098 31.025 61.8695C31.5495 61.2355 31.5995 60.3338 31.1483 59.6458L24.7115 49.8313L27.3455 47.7185C27.788 47.3638 28.046 46.8278 28.0475 46.2605C28.049 45.6935 27.7935 45.1563 27.3533 44.799L13.1133 33.257C12.446 32.7163 11.497 32.698 10.8098 33.212L0.752253 40.7325C0.230503 41.1228 -0.0514973 41.7555 0.00775273 42.4045C0.0670027 43.0538 0.458753 43.6253 1.04225 43.9145ZM11.8863 37.0903L23.1855 46.2485L21.0363 47.9725C20.2823 48.577 20.1115 49.6555 20.6415 50.4635L24.6765 56.616L13.0255 51.7945L15.5093 49.9373C16.031 49.547 16.313 48.9143 16.2538 48.2653C16.1948 47.6165 15.8028 47.045 15.2193 46.7555L5.44125 41.9093L11.8863 37.0903Z" fill="black"/>
<path d="M11.4605 72.0584C11.7153 72.6836 12.2863 73.1239 12.9558 73.2106L22.863 74.4964C22.9448 74.5069 23.026 74.5121 23.1068 74.5121C24.0348 74.5121 24.8413 73.8231 24.9638 72.8781C25.097 71.8511 24.3728 70.9106 23.3455 70.7774L16.7188 69.9174L18.6755 67.4396C19.094 66.9099 19.1953 66.1959 18.9408 65.5704C18.6863 64.9449 18.115 64.5049 17.4455 64.4181L7.53827 63.1324C6.51252 62.9996 5.57102 63.7234 5.43777 64.7504C5.30452 65.7774 6.02877 66.7179 7.05602 66.8511L13.6828 67.7111L11.726 70.1889C11.3073 70.7191 11.2058 71.4331 11.4605 72.0584Z" fill="black"/>
<path d="M99.9522 46.3568C99.9537 46.9241 100.212 47.4598 100.654 47.8148L103.288 49.9276L96.8515 59.7421C96.4002 60.4301 96.4505 61.3318 96.9747 61.9658C97.339 62.4061 97.873 62.6456 98.4197 62.6456C98.6605 62.6456 98.904 62.5991 99.1362 62.5031L119.454 54.0953C120.077 53.8376 120.513 53.2651 120.597 52.5963C120.681 51.9273 120.4 51.2648 119.86 50.8613L117.179 48.8571L126.957 44.0108C127.541 43.7216 127.933 43.1501 127.992 42.5011C128.051 41.8523 127.769 41.2193 127.247 40.8291L117.19 33.3088C116.502 32.7948 115.553 32.8133 114.886 33.3538L100.646 44.8958C100.206 45.2526 99.9507 45.7898 99.9522 46.3568ZM106.963 48.0681L104.814 46.3441L116.113 37.1856L122.559 42.0048L112.781 46.8511C112.197 47.1403 111.805 47.7118 111.746 48.3608C111.687 49.0096 111.969 49.6426 112.491 50.0328L114.974 51.8901L103.323 56.7116L107.358 50.5591C107.888 49.7511 107.717 48.6728 106.963 48.0681Z" fill="black"/>
<path d="M122.562 64.847C122.429 63.82 121.485 63.0955 120.462 63.229L110.554 64.5147C109.885 64.6017 109.314 65.0417 109.059 65.667C108.805 66.2922 108.906 67.0062 109.324 67.5362L111.281 70.014L104.654 70.874C103.627 71.0072 102.903 71.9477 103.036 72.9747C103.159 73.9197 103.965 74.6087 104.893 74.6087C104.974 74.6087 105.055 74.6035 105.137 74.593L115.044 73.3072C115.714 73.2202 116.285 72.7802 116.539 72.155C116.794 71.5297 116.693 70.8157 116.274 70.2857L114.317 67.808L120.944 66.948C121.971 66.8145 122.695 65.874 122.562 64.847Z" fill="black"/>
<path d="M47.3025 88.1491C48.3373 88.1491 49.1762 87.3099 49.1762 86.2746C49.1762 85.2394 48.3373 84.4001 47.3025 84.4001C46.2677 84.4001 45.4287 85.2394 45.4287 86.2746C45.4287 87.3099 46.2677 88.1491 47.3025 88.1491Z" fill="black"/>
<path d="M46.3352 76.0742C47.3701 76.0742 48.209 75.235 48.209 74.1997C48.209 73.1644 47.3701 72.3252 46.3352 72.3252C45.3004 72.3252 44.4615 73.1644 44.4615 74.1997C44.4615 75.235 45.3004 76.0742 46.3352 76.0742Z" fill="black"/>
<path d="M79.0875 71.5742C80.1223 71.5742 80.9612 70.735 80.9612 69.6997C80.9612 68.6644 80.1223 67.8252 79.0875 67.8252C78.0527 67.8252 77.2137 68.6644 77.2137 69.6997C77.2137 70.735 78.0527 71.5742 79.0875 71.5742Z" fill="black"/>
<path d="M80.5865 84.3254C81.6213 84.3254 82.4602 83.4862 82.4602 82.4509C82.4602 81.4157 81.6213 80.5764 80.5865 80.5764C79.5516 80.5764 78.7127 81.4157 78.7127 82.4509C78.7127 83.4862 79.5516 84.3254 80.5865 84.3254Z" fill="black"/>
</g>
<defs>
<clipPath id="clip0">
<rect width="128" height="128" fill="white"/>
</clipPath>
</defs>
</svg>
