<svg width="150" height="150" viewBox="0 0 150 150" fill="none" xmlns="http://www.w3.org/2000/svg">
<g clip-path="url(#clip0)">
<path d="M149.959 68.7325C150.507 75.8214 145.52 82.1148 138.824 82.7865C133.698 83.3004 129.06 80.3689 126.918 75.7905L120.842 76.326L116.254 78.5394C115.205 79.044 114.499 80.0469 114.338 81.1985C113.904 84.3034 113.118 87.2937 112.025 90.1355C111.654 91.0982 111.719 92.1724 112.223 93.0701L113.858 95.9923L118.402 99.0415C120.798 98.1252 123.587 98.345 125.881 99.8835C129.769 102.493 130.701 107.864 127.81 111.644C125.321 114.9 120.693 115.795 117.17 113.702C114.926 112.371 113.57 110.161 113.239 107.799L108.202 104.422L105.032 104.035C103.943 103.902 102.859 104.276 102.067 105.035C99.3922 107.582 96.3709 109.771 93.0865 111.523C91.9814 112.111 91.2725 113.241 91.1951 114.489L90.7926 120.909L92.7862 128.818C96.179 129.765 98.9836 132.455 99.9061 136.114C101.299 141.646 97.863 147.259 92.26 148.506C87.2048 149.633 82.0197 146.686 80.4131 141.761C79.1625 137.916 80.311 133.941 82.9546 131.344L80.9517 123.388L77.8592 118.417C77.0296 117.083 75.5623 116.293 73.9897 116.296C73.9805 116.296 73.9743 116.296 73.965 116.296C71.2563 116.296 68.6065 116.027 66.0433 115.522C64.5172 115.219 62.9416 115.702 61.8705 116.832L57.7843 121.144L53.209 130.635C54.2801 132.811 54.376 135.44 53.243 137.795C51.2061 142.018 46.0117 143.696 41.8605 141.361C38.3068 139.359 36.7683 134.938 38.3161 131.161C39.3717 128.586 41.5603 126.865 44.0367 126.289L48.6399 116.736L49.5438 110.325C49.7079 109.142 49.2559 107.951 48.3272 107.202C44.6651 104.23 41.5262 100.642 39.0714 96.5929C38.4616 95.5868 37.3657 94.977 36.1894 94.9677L29.7877 94.9058L22.7793 97.1099C22.2871 101.468 19.3029 105.341 14.8514 106.74C8.87074 108.622 2.5 105.335 0.559064 99.3913C-1.38188 93.4509 1.89636 86.9532 7.83062 84.9906C11.9849 83.6162 16.3497 84.7584 19.3029 87.5661L26.7416 85.2259L32.1744 81.3533C32.9824 80.7806 33.4126 79.821 33.3322 78.8366C33.2424 77.7438 33.196 76.6418 33.196 75.5274C33.196 69.4724 34.5271 63.7238 36.9045 58.5542C37.2512 57.7958 37.2419 56.9228 36.8766 56.1737L35.2669 52.8831L30.899 49.5862C28.4535 50.3694 25.6829 49.9949 23.4789 48.3325C19.7394 45.5093 19.1079 40.0951 22.2035 36.4826C24.8688 33.3715 29.5401 32.7338 32.9421 35.0184C35.109 36.4733 36.3411 38.7517 36.5392 41.1291L41.3807 44.7819L46.2594 45.6517C49.81 42.3549 53.9488 39.6834 58.4963 37.8106L59.6416 30.8517L58.196 23.6637C53.9179 22.5617 50.4446 19.2834 49.5098 14.9125C48.191 8.73674 52.4351 2.72199 58.9916 1.48066C65.545 0.239322 71.9281 4.23574 73.2468 10.4115C74.2343 15.0332 72.1076 19.562 68.2257 22.0695L69.5909 28.8488L72.9434 34.198C73.1632 34.5478 73.5471 34.7583 73.9588 34.7583H73.965C81.6421 34.7583 88.83 36.8943 94.9686 40.6028C95.306 40.804 95.7208 40.8319 96.0768 40.6647L101.327 38.2316L107.456 31.6008C107.088 29.2234 107.766 26.7036 109.527 24.7998C112.709 21.3606 118.158 21.2739 121.445 24.7131C124.327 27.7313 124.439 32.545 121.702 35.6963C119.932 37.7363 117.39 38.6774 114.907 38.4916L108.778 45.1224L106.788 50.4778C106.648 50.8493 106.71 51.2641 106.942 51.586C109.36 54.9045 111.289 58.6006 112.62 62.5692C112.988 63.6588 113.855 64.507 114.963 64.8197L119.947 66.2158L126.423 65.6431C128.011 61.0647 131.976 57.6007 136.846 57.1116C143.542 56.4399 149.414 61.6436 149.959 68.7325Z" fill="#EB5569"/>
<path d="M73.965 105.716C90.6375 105.716 104.153 92.1998 104.153 75.5273C104.153 58.8547 90.6375 45.339 73.965 45.339C57.2925 45.339 43.7767 58.8547 43.7767 75.5273C43.7767 92.1998 57.2925 105.716 73.965 105.716Z" fill="#F58A97"/>
<path d="M52.9781 75.5273C52.9781 60.4186 64.0764 47.9028 78.5657 45.6872C77.0655 45.4579 75.5292 45.339 73.965 45.339C57.2921 45.339 43.7767 58.8544 43.7767 75.5273C43.7767 92.2002 57.2921 105.716 73.965 105.716C75.5292 105.716 77.0655 105.597 78.5657 105.367C64.0767 103.151 52.9781 90.6357 52.9781 75.5273Z" fill="#F07281"/>
<path d="M23.1715 20.6452C27.9193 20.6452 31.7683 16.7963 31.7683 12.0484C31.7683 7.30057 27.9193 3.45166 23.1715 3.45166C18.4236 3.45166 14.5747 7.30057 14.5747 12.0484C14.5747 16.7963 18.4236 20.6452 23.1715 20.6452Z" fill="#EB5569"/>
<path d="M20.8216 131.046C23.9576 131.046 26.4999 128.503 26.4999 125.367C26.4999 122.231 23.9576 119.689 20.8216 119.689C17.6856 119.689 15.1434 122.231 15.1434 125.367C15.1434 128.503 17.6856 131.046 20.8216 131.046Z" fill="#EB5569"/>
<path d="M125.078 143.059C129.697 143.059 133.442 139.314 133.442 134.695C133.442 130.076 129.697 126.331 125.078 126.331C120.459 126.331 116.714 130.076 116.714 134.695C116.714 139.314 120.459 143.059 125.078 143.059Z" fill="#EB5569"/>
<path d="M64.6986 74.9995C69.0051 74.9995 72.4961 71.5085 72.4961 67.202C72.4961 62.8956 69.0051 59.4045 64.6986 59.4045C60.3922 59.4045 56.9011 62.8956 56.9011 67.202C56.9011 71.5085 60.3922 74.9995 64.6986 74.9995Z" fill="#EB5569"/>
<path d="M70.9579 96.7292C73.8891 96.7292 76.2653 94.353 76.2653 91.4218C76.2653 88.4906 73.8891 86.1144 70.9579 86.1144C68.0267 86.1144 65.6505 88.4906 65.6505 91.4218C65.6505 94.353 68.0267 96.7292 70.9579 96.7292Z" fill="#EB5569"/>
<path d="M87.6234 79.9841C90.0847 79.9841 92.0801 77.9888 92.0801 75.5274C92.0801 73.066 90.0847 71.0707 87.6234 71.0707C85.162 71.0707 83.1666 73.066 83.1666 75.5274C83.1666 77.9888 85.162 79.9841 87.6234 79.9841Z" fill="#EB5569"/>
</g>
<defs>
<clipPath id="clip0">
<rect width="150" height="150" fill="white"/>
</clipPath>
</defs>
</svg>
