<svg width="128" height="128" viewBox="0 0 128 128" fill="none" xmlns="http://www.w3.org/2000/svg">
<g clip-path="url(#clip0)">
<path d="M56.9932 78.5767C56.9932 103.454 51.6162 126.123 35.7224 126.123C19.8286 126.123 1.93939 126.226 1.93939 101.349C1.93939 76.4719 14.4516 23.5229 35.7224 23.5229C51.6162 23.5229 56.9932 53.6997 56.9932 78.5767Z" fill="#F88FA4"/>
<path d="M71.0068 78.5767C71.0068 103.454 76.3838 126.123 92.2776 126.123C108.171 126.123 126.061 126.226 126.061 101.349C126.061 76.4719 113.548 23.5229 92.2776 23.5229C76.3838 23.5229 71.0068 53.6997 71.0068 78.5767Z" fill="#F88FA4"/>
<path d="M35.7224 118.616C20.5496 118.616 3.55897 118.708 2.049 97.0732C1.97618 98.5721 1.93939 100.002 1.93939 101.349C1.93939 126.226 19.8286 126.123 35.7224 126.123C51.6162 126.123 56.9932 103.454 56.9932 78.5769C56.9932 77.3284 56.9789 76.0662 56.9511 74.7954C56.4264 98.1645 50.8184 118.616 35.7224 118.616Z" fill="#F05475"/>
<path d="M92.2776 118.616C77.1816 118.616 71.5736 98.1645 71.0489 74.7954C71.0211 76.0662 71.0068 77.3284 71.0068 78.5769C71.0068 103.454 76.3838 126.123 92.2776 126.123C108.171 126.123 126.061 126.226 126.061 101.349C126.061 100.002 126.024 98.5721 125.951 97.0732C124.441 118.708 107.45 118.616 92.2776 118.616Z" fill="#F05475"/>
<path d="M32.9697 48.7977C36.1528 51.3744 40.5721 51.7878 44.1779 49.8464L52.4797 45.3763C55.7219 43.6304 57.7439 40.2453 57.7439 36.563V0H70.2561V36.5627C70.2561 40.2451 72.2781 43.6301 75.5202 45.3761L83.8221 49.8462C87.4281 51.7878 91.8472 51.3744 95.0303 48.7974L88.5239 74.0721C88.8307 70.0844 86.858 66.266 83.4287 64.2085L71.7248 57.1861C66.9699 54.3331 61.0296 54.3331 56.2747 57.1861L44.5707 64.2085C41.1414 66.266 39.169 70.0847 39.4755 74.0721L32.9697 48.7977Z" fill="#FFE4C2"/>
<path d="M88.524 74.0724L90.65 65.8138C90.2316 62.3291 88.2327 59.1761 85.1524 57.3278L72.4102 49.6826C67.2334 46.5765 60.7663 46.5765 55.5898 49.6826L42.8476 57.3278C39.7673 59.1758 37.7684 62.3291 37.35 65.8138L39.4761 74.0724C39.1693 70.0847 41.1419 66.2662 44.5713 64.2087L56.2752 57.1864C61.0301 54.3333 66.9704 54.3333 71.7253 57.1864L83.4292 64.2087C86.8583 66.2662 88.8308 70.0847 88.524 74.0724Z" fill="#F2D1A5"/>
<path d="M24.9619 98.5962C29.7991 98.5962 33.7204 94.6749 33.7204 89.8377C33.7204 85.0004 29.7991 81.0791 24.9619 81.0791C20.1246 81.0791 16.2033 85.0004 16.2033 89.8377C16.2033 94.6749 20.1246 98.5962 24.9619 98.5962Z" fill="#9CE3BF"/>
<path d="M101.537 111.359C107.756 111.359 112.798 106.317 112.798 100.098C112.798 93.8786 107.756 88.8369 101.537 88.8369C95.3174 88.8369 90.2756 93.8786 90.2756 100.098C90.2756 106.317 95.3174 111.359 101.537 111.359Z" fill="#9CE3BF"/>
<path d="M24.9619 91.0891C21.475 91.0891 18.4585 89.0406 17.0501 86.0842C16.5079 87.2226 16.2033 88.4953 16.2033 89.8379C16.2033 94.6674 20.1324 98.5964 24.9619 98.5964C29.7913 98.5964 33.7204 94.6674 33.7204 89.8379C33.7204 88.4953 33.4159 87.2226 32.8736 86.0842C31.4652 89.0406 28.4488 91.0891 24.9619 91.0891Z" fill="#87BCC4"/>
<path d="M101.537 103.851C96.6431 103.851 92.4708 100.713 90.9213 96.344C90.5046 97.5189 90.2756 98.7819 90.2756 100.098C90.2756 106.307 95.3273 111.359 101.537 111.359C107.746 111.359 112.798 106.307 112.798 100.098C112.798 98.7819 112.569 97.5189 112.152 96.344C110.602 100.713 106.43 103.851 101.537 103.851Z" fill="#87BCC4"/>
<path d="M106.291 74.5728C109.055 74.5728 111.296 72.332 111.296 69.5679C111.296 66.8038 109.055 64.563 106.291 64.563C103.527 64.563 101.286 66.8038 101.286 69.5679C101.286 72.332 103.527 74.5728 106.291 74.5728Z" fill="#9CE3BF"/>
<path d="M23.2101 64.563C25.9743 64.563 28.215 62.3222 28.215 59.5581C28.215 56.794 25.9743 54.5532 23.2101 54.5532C20.446 54.5532 18.2053 56.794 18.2053 59.5581C18.2053 62.3222 20.446 64.563 23.2101 64.563Z" fill="#9CE3BF"/>
<path d="M35.9726 117.865C38.7367 117.865 40.9775 115.624 40.9775 112.86C40.9775 110.096 38.7367 107.855 35.9726 107.855C33.2085 107.855 30.9677 110.096 30.9677 112.86C30.9677 115.624 33.2085 117.865 35.9726 117.865Z" fill="#9CE3BF"/>
<path d="M24.3362 88.5864H28.0899V92.3401H24.3362V88.5864Z" fill="white"/>
<path d="M96.6569 95.8435H100.411V99.5972H96.6569V95.8435Z" fill="white"/>
<path d="M102.913 100.848H106.667V104.602H102.913V100.848Z" fill="white"/>
<path d="M79.2649 82.7056H83.0186V86.4592H79.2649V82.7056Z" fill="white"/>
<path d="M104.289 52.426H108.043V56.1797H104.289V52.426Z" fill="white"/>
<path d="M86.7722 37.4114H90.5259V41.165H86.7722V37.4114Z" fill="white"/>
<path d="M16.7038 110.232H20.4575V113.986H16.7038V110.232Z" fill="white"/>
<path d="M34.2209 37.4114H37.9746V41.165H34.2209V37.4114Z" fill="white"/>
<path d="M44.2307 99.9724H47.9843V103.726H44.2307V99.9724Z" fill="white"/>
<path d="M43.288 48.1938C40.3397 49.7811 36.7529 49.4458 34.1506 47.339L31.7888 50.2563C33.9837 52.0333 36.6598 52.943 39.3572 52.943C41.3079 52.943 43.2698 52.467 45.0678 51.4988L53.3696 47.0287C57.2257 44.9524 59.6207 40.9422 59.6207 36.563V32.9071H68.3793V36.5627C68.3793 40.942 70.7746 44.9521 74.6304 47.0284L77.0127 48.3112L78.7922 45.0062L76.4099 43.7234C73.7718 42.3028 72.1327 39.5589 72.1327 36.5627V0H68.379V6.63148H59.6205V0H55.8668V36.5627C55.8668 39.5591 54.228 42.3028 51.5897 43.7234L43.288 48.1938ZM59.6207 10.3851H68.3793V17.8925H59.6207V10.3851ZM59.6207 21.6461H68.3793V29.1535H59.6207V21.6461Z" fill="black"/>
<path d="M82.463 65.818C85.0631 67.3781 86.6781 70.2299 86.6781 73.2603C86.6781 73.4825 86.6694 73.7075 86.6524 73.9285L90.395 74.2162C90.4193 73.8997 90.4315 73.5781 90.4315 73.2603C90.4315 68.9188 88.118 64.8338 84.3942 62.5991L72.6902 55.5768C70.0659 54.002 67.0605 53.1697 63.9995 53.1697C60.9388 53.1697 57.9336 54.002 55.3088 55.5768L48.0374 59.9395L49.9688 63.1582L57.2401 58.7954C59.2814 57.5705 61.6189 56.9233 63.9995 56.9233C66.3803 56.9233 68.7176 57.5707 70.7588 58.7954L82.463 65.818Z" fill="black"/>
<path d="M45.537 65.818L46.7506 65.0897L44.8193 61.8711L43.6056 62.5993C39.8814 64.834 37.5679 68.919 37.5679 73.2605C37.5679 73.5793 37.5804 73.9011 37.6047 74.2171L41.3471 73.9276C41.3301 73.7074 41.3213 73.4829 41.3213 73.2605C41.3216 70.2298 42.9369 67.378 45.537 65.818Z" fill="black"/>
<path d="M84.712 48.1938L82.0975 46.7859L80.318 50.0909L82.9325 51.4987C84.6805 52.4399 86.6532 52.9376 88.6369 52.9376C91.3856 52.9376 94.0754 51.9855 96.2115 50.2565L93.8497 47.3392C92.38 48.5288 90.5287 49.1842 88.6371 49.1842C87.272 49.1837 85.915 48.8414 84.712 48.1938Z" fill="black"/>
<path d="M72.8837 78.5768C72.8837 74.1272 73.0569 69.6898 73.3984 65.3876L69.6565 65.0903C69.3072 69.4909 69.13 74.0283 69.13 78.5765C69.13 79.8953 69.1453 81.2176 69.1753 82.5068L72.928 82.4188C72.8984 81.159 72.8837 79.8665 72.8837 78.5768Z" fill="black"/>
<path d="M121.658 61.1118L118.048 62.1401C121.833 75.4265 124.184 90.4505 124.184 101.349C124.184 112.354 120.664 118.884 113.107 121.902L114.499 125.388C123.542 121.778 127.938 113.914 127.938 101.349C127.937 90.1272 125.532 74.7091 121.658 61.1118Z" fill="black"/>
<path d="M92.2776 25.3999C101.407 25.3999 110.414 37.4972 116.99 58.5901L120.573 57.4727C117.35 47.1316 113.55 38.8133 109.28 32.7488C104.094 25.3816 98.3731 21.6462 92.2776 21.6462C85.225 21.6462 79.6097 26.6186 75.5886 36.4252L79.0615 37.8493C82.449 29.5885 86.8956 25.3999 92.2776 25.3999Z" fill="black"/>
<path d="M92.6692 124.246H92.2776C77.1601 124.246 73.7485 100.362 73.0603 86.1255L69.3112 86.3067C69.8955 98.3975 71.8361 108.082 75.0788 115.092C79.0412 123.657 84.8278 128 92.2776 128H92.6692C98.4386 128 104.978 128 110.676 126.6L109.781 122.955C104.524 124.246 98.2257 124.246 92.6692 124.246Z" fill="black"/>
<path d="M54.6016 65.3876C54.9431 69.6896 55.1163 74.1272 55.1163 78.5768C55.1163 79.8663 55.1016 81.1588 55.072 82.4188L58.8247 82.5068C58.855 81.2178 58.8702 79.8953 58.87 78.5768C58.87 74.0286 58.6928 69.4911 58.3435 65.0906L54.6016 65.3876Z" fill="black"/>
<path d="M3.81623 101.349C3.81623 90.4507 6.16727 75.427 9.95172 62.1406L6.34169 61.1123C2.46841 74.7096 0.062561 90.1274 0.062561 101.349C0.062561 113.914 4.45835 121.778 13.5014 125.388L14.8933 121.902C7.33591 118.885 3.81623 112.354 3.81623 101.349Z" fill="black"/>
<path d="M35.7224 124.246H35.3308C29.7743 124.246 23.4764 124.246 18.2193 122.954L17.3237 126.6C23.022 128 29.5611 128 35.3308 128H35.7224C43.1724 128 48.9588 123.657 52.9212 115.092C56.1639 108.082 58.1045 98.3975 58.6888 86.3064L54.9397 86.1252C54.2515 100.362 50.8399 124.246 35.7224 124.246Z" fill="black"/>
<path d="M35.7224 25.3999C41.1044 25.3999 45.551 29.5885 48.9388 37.8493L52.4117 36.4252C48.39 26.6186 42.775 21.6462 35.7224 21.6462C29.6269 21.6462 23.9064 25.3816 18.7195 32.7491C14.4499 38.8135 10.6504 47.1319 7.42651 57.473L11.01 58.5903C17.5859 37.4972 26.5932 25.3999 35.7224 25.3999Z" fill="black"/>
<path d="M23.085 100.304V105.103H26.8387V100.304C28.3759 100.029 29.7991 99.4238 31.0328 98.5627L34.4286 101.958L37.0827 99.3044L33.6869 95.9086C34.5477 94.6751 35.1531 93.2517 35.4281 91.7145H40.2268V87.9608H35.4281C35.1531 86.4236 34.548 85.0004 33.6869 83.7667L37.0827 80.3709L34.4286 77.7168L31.0328 81.1126C29.7993 80.2518 28.3759 79.6465 26.8387 79.3714V74.5728H23.085V79.3714C21.5478 79.6465 20.1246 80.2515 18.8909 81.1126L15.4951 77.7168L12.8408 80.3709L16.2366 83.7667C15.3758 85.0002 14.7704 86.4236 14.4954 87.9608H9.69696V91.7145H14.4956C14.7707 93.2517 15.3758 94.6749 16.2368 95.9086L12.841 99.3044L15.4951 101.958L18.8909 98.5627C20.1246 99.4235 21.5478 100.029 23.085 100.304ZM24.9619 82.9559C28.7566 82.9559 31.8436 86.043 31.8436 89.8377C31.8436 93.6324 28.7566 96.7194 24.9619 96.7194C21.1672 96.7194 18.0801 93.6324 18.0801 89.8377C18.0801 86.043 21.1672 82.9559 24.9619 82.9559Z" fill="black"/>
<path d="M112.055 107.962C113.343 106.242 114.219 104.197 114.538 101.975H119.304V98.2211H114.538C114.219 95.9987 113.343 93.9537 112.055 92.2342L115.427 88.8617L112.773 86.2076L109.401 89.5801C107.681 88.2914 105.636 87.4158 103.414 87.0965V82.3306H99.6601V87.0962C97.4376 87.4155 95.3926 88.2911 93.6732 89.5799L90.3007 86.2074L87.6466 88.8614L91.0191 92.234C89.7304 93.9534 88.8548 95.9987 88.5354 98.2208H83.7693V101.975H88.5349C88.8543 104.197 89.7299 106.242 91.0186 107.961L87.6461 111.334L90.3002 113.988L93.6727 110.615C95.3921 111.904 97.4374 112.78 99.6596 113.099V117.865H103.413V113.1C105.636 112.78 107.681 111.905 109.4 110.616L112.773 113.988L115.427 111.334L112.055 107.962ZM101.537 109.482C96.3621 109.482 92.1525 105.272 92.1525 100.098C92.1525 94.9234 96.3621 90.7138 101.537 90.7138C106.711 90.7138 110.921 94.9234 110.921 100.098C110.921 105.272 106.711 109.482 101.537 109.482Z" fill="black"/>
<path d="M106.291 76.4497C110.086 76.4497 113.173 73.3627 113.173 69.568C113.173 65.7733 110.086 62.6863 106.291 62.6863C102.497 62.6863 99.4095 65.7733 99.4095 69.568C99.4095 73.3627 102.497 76.4497 106.291 76.4497ZM106.291 66.4399C108.016 66.4399 109.419 67.8431 109.419 69.568C109.419 71.2929 108.016 72.6961 106.291 72.6961C104.566 72.6961 103.163 71.2929 103.163 69.568C103.163 67.8431 104.566 66.4399 106.291 66.4399Z" fill="black"/>
<path d="M16.3284 59.5582C16.3284 63.3529 19.4154 66.4399 23.2102 66.4399C27.0049 66.4399 30.0919 63.3529 30.0919 59.5582C30.0919 55.7635 27.0049 52.6765 23.2102 52.6765C19.4154 52.6765 16.3284 55.7635 16.3284 59.5582ZM23.2102 56.4302C24.9351 56.4302 26.3382 57.8333 26.3382 59.5582C26.3382 61.2832 24.9351 62.6863 23.2102 62.6863C21.4852 62.6863 20.0821 61.2832 20.0821 59.5582C20.0821 57.8333 21.4852 56.4302 23.2102 56.4302Z" fill="black"/>
<path d="M35.9726 105.979C32.1779 105.979 29.0909 109.066 29.0909 112.86C29.0909 116.655 32.1779 119.742 35.9726 119.742C39.7673 119.742 42.8543 116.655 42.8543 112.86C42.8543 109.066 39.7673 105.979 35.9726 105.979ZM35.9726 115.988C34.2477 115.988 32.8445 114.585 32.8445 112.86C32.8445 111.135 34.2477 109.732 35.9726 109.732C37.6975 109.732 39.1007 111.135 39.1007 112.86C39.1007 114.585 37.6975 115.988 35.9726 115.988Z" fill="black"/>
<path d="M44.2307 80.2034H47.9844V83.957H44.2307V80.2034Z" fill="black"/>
<path d="M114.299 77.4507H118.053V81.2044H114.299V77.4507Z" fill="black"/>
<path d="M96.782 32.4067H100.536V36.1604H96.782V32.4067Z" fill="black"/>
<path d="M21.7087 42.4163H25.4624V46.1699H21.7087V42.4163Z" fill="black"/>
</g>
<defs>
<clipPath id="clip0">
<rect width="128" height="128" fill="white"/>
</clipPath>
</defs>
</svg>
